<svg xmlns="http://www.w3.org/2000/svg" viewBox="0 0 1923.04 2400.76"><defs><style>.cls-1{fill:#fff;}.cls-2{fill:#cdf2f2;}.cls-3{fill:#eefbfc;}</style></defs><g id="Layer_2" data-name="Layer 2"><g id="Layer_1-2" data-name="Layer 1"><rect class="cls-1" x="0.81" width="1920" height="1900"/><path class="cls-2" d="M2.78,243.86c122-27,260.42-28,341.54-7.33,69.6,17.73,203.41,36.31,317.94,137C741.57,443.29,748.78,495,881.67,521.62c95.83,19.2,153.16,20.75,218.52,10,52.89-8.67,94.67-11,161.26-26,113.46-25.56,528.71-284.09,661.33-312,.34,54.42-1.63,1745.32-2,1839.6C1683.62,2037,17,2072.73,2.78,2037c-1.58-4,1.7-1662.32,0-1792.25C2.77,243.76,1.84,244.07,2.78,243.86Z"/><path class="cls-3" d="M0,336.91c121.93-27,262.34-27.94,343.41-7.28,69.6,17.73,203.41,36.31,317.94,137,79.31,69.76,87.85,115.66,219.41,148.14,81.28,20,142.57,18,218.52,10,57.21-6,94.67-11,161.26-26,110.91-25,519.21-272.39,661.5-309.73,3.33-.88-3-1.64,0-2.27.68,103.23-1.57,2021.11-1.23,2113.23-195.41.82-1824.13,1.19-1918.77,0-2.69,0-.25-1903.11,0-2063.08Z"/></g></g></svg>