<svg id="Layer_1" data-name="Layer 1" xmlns="http://www.w3.org/2000/svg" viewBox="0 0 1920 1900"><defs><style>.cls-1{fill:#cdf2f2;}.cls-2{fill:#eefbfc;}</style></defs><title>short</title><path class="cls-1" d="M-244.6,427.71C-244,244.3,172.81,193.55,341.54,236.53c69.6,17.73,203.41,36.31,317.94,137C738.79,443.29,746,495,878.89,521.62c95.83,19.2,153.16,20.75,218.52,10,52.89-8.67,94.67-11,161.26-26,113.46-25.56,538.45-284.09,671.07-312,93.07-19.6,161.47,194.27,192.52,194.27,136,0,59.71,188,66.33,329.07,9.94,211.6-47.64,1221.6-50.13,1316.26C1901.27,2037,100.65,2037-244.6,2037-249.56,2037-245.84,804.51-244.6,427.71Z"/><path class="cls-2" d="M-244.77,484.05c.61-183.42,417.41-234.17,586.14-191.19,69.6,17.73,203.41,36.31,317.94,137C738.62,499.62,747.16,545.52,878.72,578c81.28,20,142.57,18,218.52,10,57.21-6,94.67-11,161.26-26C1372,536.44,1797,277.92,1929.57,250c93.07-19.59,161.47,194.27,192.52,194.27,136,0,59.71,188,66.33,329.07,9.94,211.6-47.65,1221.6-50.13,1316.27-237.19,3.71-2037.81,3.71-2383.06,3.71C-249.73,2093.32-246,860.84-244.77,484.05Z"/></svg>