<?xml version="1.0" encoding="utf-8"?>
<!-- Generator: Adobe Illustrator 24.2.1, SVG Export Plug-In . SVG Version: 6.00 Build 0)  -->
<svg version="1.1" id="Layer_1" xmlns="http://www.w3.org/2000/svg" xmlns:xlink="http://www.w3.org/1999/xlink" x="0px" y="0px"
	 viewBox="0 0 1923.1 2201.6" style="enable-background:new 0 0 1923.1 2201.6;" xml:space="preserve">
<style type="text/css">
	.st0{fill:#FFFFFF;}
	.st1{fill:#CDF2F2;}
	.st2{fill:#EEFBFC;}
</style>
<g id="Layer_2_1_">
	<g id="Layer_1-2">
		<rect x="2" class="st0" width="1920" height="1900"/>
		<path class="st1" d="M2,259.5c132.8-49.9,318-57.8,416.5-32c67.8,17.7,198.2,36.3,309.7,137c77.3,69.8,84.3,121.6,213.8,148.1
			c169.9,34.8,238.8-122,383-70.3c106.7,38.3,381.6-57.2,524.9-70c19.1-1.7,44.3,0.6,72.1,5h0.1c0.1,86.2,2.3,1552.3-0.1,1646.9
			C1690.9,2028,338.3,2028,2,2028c-4.8,0,0.7-1691,0-1768.3C2,259.5,1.9,259.6,2,259.5z"/>
		<path class="st2" d="M2,308.1c131.4-51.9,317.9-60.4,416.5-34.3c66.9,17.7,195.5,36.3,305.6,137C800.3,480.6,807.2,532.5,935,559
			c167.6,34.8,233.5-129.3,375.8-77.6c105.3,38.3,355.4-29.1,482.9-57c31.6-6.9,78.8-8.8,128.3-8.4l0,0
			c-0.4,98.1-0.4,2291.6,0,2384.1c-228,3.7-1588.2,0-1920,0C2,2792.9,2,385.6,2,308.1L2,308.1z"/>
	</g>
</g>
</svg>
