<svg id="Layer_1" data-name="Layer 1" xmlns="http://www.w3.org/2000/svg" viewBox="0 0 1920 1900"><defs><style>.cls-1{fill:#cdf2f2;}.cls-2{fill:#eefbfc;}</style></defs><title>BACKNEW</title><path class="cls-1" d="M-154.55,418.66c.58-183.41,406.64-234.16,571-191.18,67.8,17.73,198.16,36.31,309.74,137C803.49,434.24,810.51,486.09,940,512.58c169.9,34.76,238.81-122,383-70.26,106.71,38.25,381.55-57.19,524.93-70,78.37-7,261,53,291.3,53,132.47,0,70.21,141.57,76.67,282.64,9.67,211.6-46.42,1221.6-48.84,1316.27-231.08,3.71-1985.29,3.71-2321.63,3.71C-159.39,2027.94-155.76,795.46-154.55,418.66Z"/><path class="cls-2" d="M-146.86,465.05c.58-183.42,401.18-234.17,563.36-191.19,66.9,17.73,195.51,36.31,305.58,137C798.32,480.62,805.25,532.47,933,559c167.62,34.76,233.48-129.34,375.78-77.64,105.27,38.25,355.4-29.08,482.87-57,89.45-19.59,306.56.95,336.4.95,130.69,0,57.4,188,63.76,329.07,9.55,211.6-45.79,1221.6-48.18,1316.27-228,3.71-1958.64,3.71-2290.47,3.71C-151.64,2074.32-148.06,841.84-146.86,465.05Z"/></svg>