<svg xmlns="http://www.w3.org/2000/svg" viewBox="0 0 111 74"><defs><style>.cls-1{fill:#95e3dd;}</style></defs><title>bigbrush</title><g id="Layer_2" data-name="Layer 2"><g id="Layer_1-2" data-name="Layer 1"><path class="cls-1" d="M110.76,52c.57-3.82.3-4.24-2.71-4.24-.34,0-.72.15-.9-.42l1-.56c.47.05.49-.38.53-.8,1.38-1.77.82-4.05,1-6.15a52.23,52.23,0,0,0,.25-8.39,1.5,1.5,0,0,0-.28-1.41c-.09-1.22.36-3-1.49-2.38-1.71.17-1.33-1.43-1.37-2.69.63-1.81-.15-3.91.71-5.68,1.7-2.53,1.44-5.49,1.11-8.46a6.28,6.28,0,0,0,0-3.74c0-5-.85-6.39-3.35-6.07a8,8,0,0,0-3.59-.45l.37.46V1a2.51,2.51,0,0,0-.36-.48.28.28,0,0,0-.31-.05C99.56-.19,97.71,0,95.86.08a56.53,56.53,0,0,0-12,.84c-2,.72-4.17-.08-6.13,1-2.55-1.17-4.94.53-7.41.73-1.52.12-3.13-.43-4.56.71-3.25-.15-6.34,1-9.49,1.76h0c-1.53.83-3.25,0-4.77.91-.08-.07-.16-.05-.22,0h0l-5.46.58a15.48,15.48,0,0,0-5.42.38l-.38,0a8.4,8.4,0,0,1-4.69.51,12.49,12.49,0,0,0-4.72.9,15.91,15.91,0,0,0-4.33.94H26a7.35,7.35,0,0,0-3.43,1.18c1.67-.3,1.67-.3,1.95.63-1.17.66-2.52.16-3.67.94a4.51,4.51,0,0,0-2.64.45h0c-.84,0-1.72-.09-1.87,1.43-.18,1.7-.37,3.39-.56,5.09h-.68l-1.77.61c-.76,0-1.54-.32-2.22.38l-.66.1c-.53-.05-1.08-.21-1.52.37-.37.07-.82-.12-1,.48a1.08,1.08,0,0,0-.39,1,1.08,1.08,0,0,1-.31,0c-.24,0-.67,0-.69.06-.15.68.6.74.63,1.35-.37.45-1.12.3-1.17,1.2,0,.07.53.19.82.29.12.26.23.51.34.77-.38.65.1.71.37.91l.73.51L6.77,31.3c-.12.39-.25.79-.37,1.19.07.32.1.67.43.73h0c.2,1,.44,1.83,1.35,2V36c-.34.23-.42.46,0,.7l.69.81c-.35.2-.78.22-.95.77l.63.29a8.82,8.82,0,0,0,1.78-.07h0l-1.78.07,1.41.76h0c-.72.15-1.55-.06-2,1.11,1.5,0,2.82-.68,4.19-1l.06.89c-.39,1.29-1.57,1.35-2.17,2.32-.61.68-1.44.57-2.13,1s-1.31-.15-1.85.48H6c-1,.15-2-.5-2.92.44L2,45.07c-.35,0-.78-.28-1,.37-.07.46-.7.34-.62.91.21,1.53.62,3.06-.4,4.42-.07.09.37.82.57,1.24s.25.87.38,1.31c0,.81-.26,1.7.3,2.4.14.31.27.62.4.92C2,57.76.91,59.75,2.83,59.93h0l.66.56c.66.42,1.32.14,2,0,.07,0,.11.09.18.11a.63.63,0,0,0,.71-.13L7,60.37c.75.23,1.62-.38,2.27.55a1.27,1.27,0,0,1-.08.44,6.44,6.44,0,0,0,0,2.55h0c0-.85,0-1.7,0-2.55-.55.91-.22,2-.26,2.94-.64,1,.15,2.07,0,3.1a3.56,3.56,0,0,1,0,2.41l-.06.91c-.47,1.65,1,.47,1.12,1.3-.82,1.54-.38,2.07.91,1.87.63-.1,1.25-.29,1.87-.44a9.92,9.92,0,0,0,4.64.47h.1c1.21-.47,2.47,0,3.68-.28,0,0,0,0,0,0s.28,0,.41,0a1.72,1.72,0,0,1-.07-.21h.15l.67-.37h0c-.34-.22-.62-.28-.67.37a.24.24,0,0,0-.08.22l1.75-.14c1.35-.07,2.73.51,4-.34L29.05,73c1.14-.08,2.31.46,3.4-.36a4.92,4.92,0,0,1,2.38-.1c1.14-.12,2.33.48,3.42-.4l1-.07c1.24-.13,2.53.51,3.73-.38l3.13-.09c1.62-.12,3.27.5,4.84-.38l4-.08L56,70.75c.25.21.5.39.76,0a6.61,6.61,0,0,0,3.42,0h0c.41.49.92.29,1.38.3,6,.18,12,.41,18,.46,4,0,8-.16,12-.27h0a10.44,10.44,0,0,0,1.82-.35,2.45,2.45,0,0,0,.27,0c.2-.13.42-.07.63-.14,3.54-.85,7.5,1.24,10.64-2.5-.16-.17-.3,0-.47,0,0,0,.09,0,.13-.07s.23,0,.34,0a5.49,5.49,0,0,0,3.24-1.36,1.88,1.88,0,0,0,1.41-1.28c1.1-1.51,0-3.54.75-5.14a3,3,0,0,0,.08-2.21c.56-1.4.14-2.91.29-4.35A3.47,3.47,0,0,0,110.76,52Z"/></g></g></svg>