<svg xmlns="http://www.w3.org/2000/svg" viewBox="0 0 645.37 599.68"><defs><style>.cls-1{fill:#000;}.cls-2{stroke:#000;stroke-miterlimit:10;stroke-width:5px;}</style></defs><g id="Layer_2" data-name="Layer 2"><g id="Layer_1-2" data-name="Layer 1"><path class="cls-1" d="M227.77,563.36a.28.28,0,0,1,.07-.13,4.48,4.48,0,0,1,0-.46C227.85,562.86,227.82,563.06,227.77,563.36Z"/><path class="cls-1" d="M227.77,563.36a.48.48,0,0,0,0,.2A1.77,1.77,0,0,0,227.77,563.36Z"/><path class="cls-1" d="M227.86,562.77c0-.1,0-.08,0,0Z"/><path class="cls-1" d="M644,308.78c-3.62-17.36-18-30.21-34.17-36-17.13-6.27-35.81-1.87-49.44,9.77a46.13,46.13,0,0,0-5.82,6.38c-11.75-35.6-33.29-71.09-69.43-84.93-3-1.21-5.28,3.19-3.08,5.16,13.84,12.64,25.38,26.37,34.5,42.74,9,16,14.5,32.85,19.33,51.09,2.53,9.67,4.73,19.88,5.5,28.56a140.12,140.12,0,0,1-.55,29.45s-.33,2.42-.33,2.31c-.22,1.2-.33,2.41-.55,3.51-.44,2.31-1,4.62-1.54,6.92a143.33,143.33,0,0,1-4.17,14.83,158,158,0,0,1-11.32,25.93,260.91,260.91,0,0,1-14.72,24.39c-2.53,3.85-5.28,7.69-8,11.43-2.09,2.75-5.06,6.37-8,9.89-2.86,3.18-5.93,6.37-9,9.34-1.65,1.64-3.41,3.18-5.16,4.72-.88.77-1.76,1.54-2.64,2.2.11,0-1.54,1.21-1.76,1.43-7.47,5.71-15.6,10-24.06,14.06-7,3.29-6.48,12.08-2.31,17.14.22,1,.11,1,0,.11.22,3.18-.11,6.48,0,9.78.33,7.69,2.86,15.38,4.72,22.85a129.42,129.42,0,0,1,2.86,16.59c.22,1.65.33,3.29.55,4.94-2.52,1.21-4.94,2.75-7.25,4a53.61,53.61,0,0,1-10,3.4c-3.62.88-7.25,1.54-10.87,2.09.22-.11-.12,0-1.1.11l-3.74.33c-2.41.22-4.94.33-7.36.44-.66,0-1.43.11-2.09.11-1.2-.77-2.52-1.32-3.73-2-3-1.87-5.82-3.84-8.79-5.71-2.2-1.32-5.49-3.52-8.79-4.62-.66-2.52-1.43-5.05-2.09-7.47,3.63,1.76,7.14,3.85,10.66,5.94,4.17,2.41,10.44,7.69,15.49,6.7a2.14,2.14,0,0,0,1.21-3.08c-1.54-2.2-3.85-2.75-6.15-3.84-3.08-1.54-6-3.19-9-4.84-4.4-2.53-9-5-13.84-6.37q-.82-2.47-1.66-4.94c-1.31-4.07-2.74-7.15-3.95-10.33-.22-.88-.66-1.87-1-2.86a10.93,10.93,0,0,0,.44-4.28c-.33-3.41-1.87-5.28-4.72-7-4.62-2.86-9.34-.66-13.52,1.53-8.67,4.73-19.66,6.71-29.66,8.46-20.54,3.52-42.85,2.75-63.61-1.1-7.58-1.42-15.27-3.4-23-4.28-4.51-2.09-10.22-.44-13.52,4.17-3.18,4.4-2.63,11.43-3.4,16.48-.77,5.61-1.76,11.21-2.42,16.92.33-1.53.33-.88-.11,2-.22,1.21-.55,3.74-.55,3.74-.22,2-.22,3.95-.33,5.93-1.54.55-3.08,1.21-4.72,1.76a60,60,0,0,1-11.32,2.3c-8.68.88-17.36.33-26-.32a2.37,2.37,0,0,0-.55-1.87,16.63,16.63,0,0,0-3.84-2.86,71.06,71.06,0,0,1-5.82-4.17,45.59,45.59,0,0,1-4.18-3.85c-.11-.11-.11-.22-.22-.33.22-2.42.33-4.94.44-7.47,1.32,2.2,4.17,4,5.94,5.38,2.74,2.31,5.71,5.39,9,6.93,2.42,1.2,5.06-1.87,3-3.85-2.64-2.64-6-4.61-9-6.92-2-1.43-4.73-4.29-7.25-4.62a2.31,2.31,0,0,0-1.54.22c.11-2.63.22-5.27.44-8,0-.55.66-4.39.11-1.64.44-2.2.66-4.4,1-6.6.33-3.18.66-6.26,1.1-9.44,0-.22.33-3,.33-3,.33-1.65.66-3.19,1-4.73.65-3.29,1.87-6.81,1.53-10.21a7.65,7.65,0,0,0-5.16-7l-.11-.11c-3.19-1.87-6.81-2.75-10.33-4-3.07-1-6-2.09-9.12-3.3-5.05-2.08-11-4.94-16.26-7.69-10.43-5.38-21.75-12.19-30.21-19-9-7.36-17.25-15.82-25.16-24.28a101.62,101.62,0,0,1-10.44-12.42c-1.64-2.31-2.85-5.27-4.39-7.91A12.4,12.4,0,0,0,58,416.78c-3.08-1.21-6.48-.11-9.56.44-.44.11-.88.11-1.43.22s-2.42.33-3,.33c-5.06.55-10.11.77-15.28.88-1.54,0-3.18-.11-4.72-.22-.44-2.42-.88-4.73-1.1-7.14s-.33-4.84-.33-7.14a2.66,2.66,0,0,1,.77.76c2.42,2.53,4.94,4.84,7.47,7.15,2.09,1.86,3.74,3.84,6.59,4.06a1.91,1.91,0,0,0,1.87-2.42c-.77-2.52-2.86-3.73-4.83-5.27-2.31-2-4.51-3.95-6.71-6-.11,0-.11-.11-.22-.11a.51.51,0,0,0,.33-.77,3.35,3.35,0,0,0-1.2-1.54,2,2,0,0,0-1.76-.22l-2.31-2.31c.11-4.39.11-8.68,0-13.07-.22-5.16-.33-10.22-.22-15.38,0-2.42.11-4.95.33-7.47l.33-3c-.11,1.21.33-2.53.44-3.18.44-2.2,1.1-4.4,1.76-6.6l.33-1c.11,0,.11-.11.11-.22a33.09,33.09,0,0,1,1.86-3.18c.22-.33.55-.55.77-.88s.55-.55.88-.77a2.3,2.3,0,0,1,.66-.44.4.4,0,0,0,.33-.11c.55-.11,1.1-.33,1.76-.44.22-.11,1.76-.33,1.87-.44,5.71-.55,11.64-.11,17.25.22,6.92.44,13.84,1.1,19.22-3.84a7.92,7.92,0,0,0,2.09-3.63A9.67,9.67,0,0,0,73,333c1.87-3.07,2.09-6.48,2.86-10,.65-3,1.64-5.93,2.52-8.89A92.63,92.63,0,0,1,83.59,301q3.45-7.08,7.58-13.84c1.42-2.31,3-4.51,4.5-6.81.66-.88,1.32-1.87,2-2.86.22-.33,2-2.53,2-2.53a138.31,138.31,0,0,1,22.52-22.85,16.18,16.18,0,0,0,1.87-1.43l3.62-2.63c2.2-1.54,4.4-2.86,6.59-4.29,4.62-2.75,10.44-5.71,13.08-10.55a7.3,7.3,0,0,0-.33-7.91c.55-1.53,1-3.07,1.54-4.61,1.75-5.38,3.29-10.88,5-16.15.88-2.86,1.87-5.6,3-8.35.55-1.43,1-2.75,1.65-4.18a1.92,1.92,0,0,1,.21-.54c.34-.77.66-1.54,1-2.31a100.24,100.24,0,0,1,8-14.17c.33-.33.55-.66.88-1l2-2c.22-.11.55-.33.77-.44s.22-.11.33-.22a.4.4,0,0,0,.33-.11h.11a.4.4,0,0,0,.33.11c.11,0,.22.11.33.11s.33.11.44.22a10,10,0,0,1,1.43.88,1.36,1.36,0,0,1,.33.22h.11a40.42,40.42,0,0,1,7,7.91,28.67,28.67,0,0,1,1.75,3.18c0-.11.88,1.87,1,2.09,1,3,1.21,6.37,2.86,9,2.2,3.52,5.49,6.26,9.89,6.26a10.77,10.77,0,0,0,9.45-6.26c4.28-2.31,8-5.82,12.41-8.46a75.44,75.44,0,0,1,10.22-5.27c3.29-1.43,7.36-2.2,10.22-4.29,1.2,1,2.41,2.09,3.62,3.19-.55.22-1.21.44-1.76.66-7.14,3.07-19.77,11.53-14.39,20.87,1.21,2,4,3.3,6.15,2.53a8.47,8.47,0,0,0,4.4-2.53,6.29,6.29,0,0,1,.88-.77l1-.66,1.64-1c.22-.11,1.54-.77,1.21-.66a20.47,20.47,0,0,0,2.75-1.1c-1.65.77,1.32-.44,1.65-.55a60.94,60.94,0,0,1,9.78-2.64c1.64-.33,3.4-.55,5.16-.77l2-.33c-.11,0,2.19-.33,2.41-.33,6.16-.66,12.31-.77,18.57-1,11.87-.32,23.73-1.31,35.6-1.31a109.9,109.9,0,0,1,33.28,4.94,62.71,62.71,0,0,1,12.53,5.28c4.73,2.52,11.43,8.89,17.25,6.37,2.53-1.1,4.94-2.31,5.38-5.39a11.34,11.34,0,0,0-3.18-10C382,188,376.71,185.29,372,183.1c2.64-2.53,5.17-5.28,7.59-7.92,4.39,1.32,10,0,14.5.33-.33,0,2.41.44,2.19.44a30,30,0,0,1,4.51,1.1,61.3,61.3,0,0,1,7.91,2.86c4.28,1.65,9.67,4.28,14.28,6.37,5.5,2.53,12.75,5.93,18.79,3.63,4.06-1.43,5.38-5.17,3.63-9-2.31-5.39-9-8.79-13.85-11.54a154.89,154.89,0,0,0-18.68-9.12,68.49,68.49,0,0,0-17.9-4.61c1.64-2.53,3.18-5.17,4.61-7.8,9.67-18.13,12-38,8.68-58.12C402.86,57.63,380.77,29,352.76,13.13c-28.9-16.37-64.16-18-93.39-1.65C225.2,30.6,202.9,72.13,205.65,111.13a90.93,90.93,0,0,0,14.94,43.51c1.87,2.86,3.95,5.6,6,8.24a11.92,11.92,0,0,1-2.09.88,126.45,126.45,0,0,0-12.3,5.93,76.66,76.66,0,0,0-8.13,5.61l-.66-1.65c-5.38-11.65-18.79-25.93-33-24.72-11.75,1.1-20.11,10.1-24.94,20.21-4.94,10.55-8,21.87-10.33,33.29-1.2,5.5-2.19,11-2.85,16.59-.11,1.21-.33,2.42-.44,3.52-2.86,1-5.72,2.19-8.13,3.29a67.41,67.41,0,0,0-14.39,9,147.69,147.69,0,0,0-26,25.71,159,159,0,0,0-19.23,30.32,168.64,168.64,0,0,0-6.92,17.36,99.83,99.83,0,0,0-3.41,12.09c-.33,0-.66-.11-1-.11-8.13-1.21-15.82-1.87-24.06-.55C14.81,321.86,6.35,333,2.84,346c-3.3,11.86-3,24.5-2.64,36.58.11,5.5.22,10.88.11,16.26,0,9.56-.33,20.22,3.84,29a8.59,8.59,0,0,0,4.18,4.17c3.84,3.74,9.23,5.39,14.5,6.26a93.57,93.57,0,0,0,19.23.88c3.29-.22,7.14-.22,10.87-.77,2.31,5.94,5.94,11.21,9.67,16.26a199.75,199.75,0,0,0,26.26,28.24,171.79,171.79,0,0,0,34.06,23.4c6.59,3.41,13.4,6.48,20.21,9.34,3.41,1.43,7,3.08,10.77,4.39a.82.82,0,0,0-.11.55c-1.54,6.16-2.42,12.64-3.41,19-1.09,6.81-1.2,13.62-1.75,20.44-.11.32-.44,3.07-.44,3.07-.22,1.54-.55,3-.88,4.4-1,3.4-1.32,7.25-.11,10.43a10.89,10.89,0,0,0,.22,3.3,15.52,15.52,0,0,0,6.92,9.89c6.81,4.61,17,5.38,25,6.7a126.17,126.17,0,0,0,31.53,1.43,89,89,0,0,0,16-2.75c6.37-1.65,13.63-3.62,17.14-9.56a10.17,10.17,0,0,0,.88-8.57l1.32-3.62a68.4,68.4,0,0,0,3.4-12c.77-5.16,1.87-10.22,2.75-15.38.22-1.54.55-3.08.77-4.72A119.16,119.16,0,0,0,269,547.3a172.75,172.75,0,0,0,34.39,4.07c20.76.55,43.28-1.87,62.84-9.56.33,1.54.66,3,1,4.39,3.08,11.54,4.5,23.29,8,34.72a10.81,10.81,0,0,0,6.59,7,26,26,0,0,0,4.18,3.3c7.8,4.83,18.89,4.83,27.79,4.83A124.71,124.71,0,0,0,443,592.46a92.8,92.8,0,0,0,14.06-5c5.16-2.2,12.42-5.16,14.83-10.55a12.31,12.31,0,0,0,1.21-6.15,43.32,43.32,0,0,0,1.87-10,53.9,53.9,0,0,0-.22-9.44A120.48,120.48,0,0,0,473,539c-1.21-6.59-3.84-13.84-4.17-20-.11-3.52.11-7.7-.22-11.65,14.94-7.69,28.12-18.79,39.33-31.42a259.66,259.66,0,0,0,35.49-52.3c9.33-18.13,16.37-37.57,19.22-57.9a158.25,158.25,0,0,0,.22-41.42c.55-1.21,1-2.41,1.54-3.51.77-2.09,1.43-4.18,2.09-6.26.33-1,.66-2,1.1-3.08.11-.44.33-.88.44-1.32,0,0,.21-.33.55-1,.87-1.87,2-3.73,3.07-5.6.11,0,1.1-1.43,1.32-1.65.55-.66,1.1-1.32,1.76-2s1.43-1.32,2.08-2c-.54.54,1.32-.88,1.32-1a36.33,36.33,0,0,1,4.51-2.53,16.57,16.57,0,0,1,1.65-.66,21.43,21.43,0,0,1,2.52-.77c.88-.22,1.76-.33,2.53-.55h.55a26.76,26.76,0,0,1,5.16-.11c.57,0,1.07.08,1.62.1-.87,0,1.83.35,2.34.45a41.76,41.76,0,0,1,4.94,1.43c.33.11,1.1.44,1.54.55a9.09,9.09,0,0,1,1.43.77,38.28,38.28,0,0,1,4.5,2.63c.22.11.88.66,1.21.88.66.55,1.32,1.1,2,1.76,1,.88,1.87,2,2.85,3-.21-.22.77,1.1,1,1.43a15,15,0,0,1,1.43,2.19c.44.77.77,1.54,1.21,2.31a.38.38,0,0,0,.11.22c0,.11.11.22.11.44a38,38,0,0,1,1.65,6v.33c.11.11.11.33.11.66a27,27,0,0,1,.22,3,25.75,25.75,0,0,1,.11,2.85c-.11.33-.11,1.43-.22,1.76a15.45,15.45,0,0,1-.53,2.16s0,0,0,0l0,0c-.05.16-.09.31-.13.47a5.36,5.36,0,0,1-.33.77,10.33,10.33,0,0,1-1.32,2c0,.11-.11.11-.11.22a19.08,19.08,0,0,1-1.43,1.42c-.55.33-1.21.66-1.76,1a2.58,2.58,0,0,1-.76.44c-.11,0-1,.44-1.32.55a41.19,41.19,0,0,1-5,1.32,17.24,17.24,0,0,1-2.3.44,6.19,6.19,0,0,1-1.1.22l-4.29.33c-3.51.11-7,.22-10.54.11a23.84,23.84,0,0,1-4.73-.88c-7.47-2-10.22,8.9-3.18,11.43,6.48,2.3,12.52,5.16,19.33,6.15,7.25,1,14.61,1.21,21.65-1.54,7.24-2.75,13.62-7.58,16.8-14.94C646,327.79,646.1,318.23,644,308.78ZM231,79.16a95.05,95.05,0,0,1,12.63-23.95c1.43-2,1.43-2,3.19-4.17,1.54-1.76,3.07-3.41,4.61-5.17a67.42,67.42,0,0,1,5-4.72,23.09,23.09,0,0,1,2.52-2.2c.22-.22,2.42-2,2.42-2a77.21,77.21,0,0,1,9.34-6.15c1.65-1,3.29-1.87,5.05-2.75.66-.33,1.43-.54,2.09-.87-1.54.65,1.64-.66,2.09-.88a86.57,86.57,0,0,1,10.43-3c1.32-.33,2.64-.55,4-.77.22,0,1.54-.11,1.87-.11,1.2-.22,2.3-.22,3.52-.33a67.5,67.5,0,0,1,10.54.22,21.36,21.36,0,0,1,2.64.22H313a.4.4,0,0,0,.33.11,61.25,61.25,0,0,1,6.15,1.21,82.27,82.27,0,0,1,10.11,3c.88.33,1.64.55,2.52.87a11.35,11.35,0,0,0,1.1.56c1.76.76,3.52,1.53,5.17,2.41a98.16,98.16,0,0,1,9.22,5.38c1.54,1,3.08,2.09,4.51,3.08a5.36,5.36,0,0,0,1.1.88l2.3,2a99.27,99.27,0,0,1,7.92,7.47c1.31,1.32,2.52,2.64,3.73,4.06.55.66,1.1,1.32,1.76,2.09a6.1,6.1,0,0,0,.66.88c.11.11.22.33.33.44A99.47,99.47,0,0,1,381,76a6.3,6.3,0,0,1,.66,1.65,24.74,24.74,0,0,1,1,2.63c.66,1.76,1.21,3.52,1.76,5.27a110.73,110.73,0,0,1,2.64,12v.11a1.94,1.94,0,0,0,.11.66c.11.88.11,1.87.22,2.86.22,2.19.33,4.5.33,6.7,0,2.41-.22,4.72-.44,7v.66c-.11.22-.11.55-.22.88-.22,1.53-.55,3-.88,4.39a59.7,59.7,0,0,1-1.76,6.37c-.33,1.1-.77,2.09-1.1,3.19,0,0-.77,1.76-.88,2a81.54,81.54,0,0,1-6.48,11.75c-2.09,3.19-4,5.72-5.38,7.48-2.31,3-4.84,5.71-7.36,8.45-4.73,5.17-9.9,9.56-14.07,15.16-3.95-.87-7.91-1.53-11.86-2.08-14.18-1.76-28.46-.55-42.63.22-9,.55-18,.55-26.92,1.43-2.2.33-4.39.55-6.7.87-4.18-8.24-11.32-14.72-17-22-2-2.53-4.72-6.7-6.81-10-1.21-1.86-2.2-3.84-3.3-5.82-.55-1-1-2-1.53-3a27,27,0,0,1-1.1-2.74C224.11,114.32,225.09,96.85,231,79.16ZM168.4,574.88a54.9,54.9,0,0,0,1.21-5.83l.66.66a61.57,61.57,0,0,0,5.71,4.84c.67.44,1.32,1,2.09,1.54C174.78,575.76,171.59,575.43,168.4,574.88Zm229.29-1.21c-.52-.08-1-.11-1.47-.15.11,0-1-.21-1.49-.29-.55-2-1.1-4.07-1.54-6,2,1.1,3.84,2.52,5.82,3.73,1.32,1,2.75,2,4.07,2.86C401.32,573.78,399.45,573.67,397.69,573.67Z"/><path class="cls-1" d="M133.25,282.41c-6.82-.65-16.15,3.52-19.23,10.33a20.2,20.2,0,0,0-3,3.74,24.82,24.82,0,0,0-3.18,19.44c3.62,13.85,21,20.66,33,13,10.65-7,14.72-22.52,9.44-34.06C147.2,288.24,140.61,283.07,133.25,282.41Zm2.08,37.14c-6.26,4.61-16.48,1.1-18.89-6.7-1.32-4.18-.22-9.12,2.19-13.3,4.73-1.86,8.24-6.26,13.52-6.26,3.85,0,7.36,4,8.57,7.14C143,306.69,140.72,315.48,135.33,319.55Z"/><path class="cls-1" d="M282.33,102.35a32.37,32.37,0,0,0,5.49,1.53,178.76,178.76,0,0,1,.34,20.44c0,2.3,0,4.5.11,6.81a48.57,48.57,0,0,0-7.58-6.7c-3.85-2.64-7.91,1.65-7.14,5.49,1.42,7.58,9.33,13.84,16.25,17.58a14.65,14.65,0,0,0,.55,2.09V153a41.08,41.08,0,0,0,.22,6.37c1,8.68,12.86,7,11.65-1.53.22,1.53,0-1,0-1.32,0-1-.11-2.09-.11-3.08v-1.76a30.7,30.7,0,0,0,11.43-.44c.11,2.75.33,5.39.33,7.59.22,7.58,12,7.69,11.86,0,0-3.3-.11-6.6-.44-9.89-.11-1.1-.22-2.2-.33-3.19,11.43-8.79,16-24.39,8.24-37.68A28.46,28.46,0,0,0,318.7,96c-.11-7-.22-14-.55-20.87a39.25,39.25,0,0,1,7.47,6.15c1.43,1.43,4.4.44,4.18-1.76-.77-7-5.72-12.41-11.76-16.15,1-5.82,1.87-13.07.11-18.68-2.42-7.25-13.95-4.06-11.54,3.19,1.21,3.63.55,7.25.55,10.88-.88-.22-1.64-.44-2.52-.66a35.35,35.35,0,0,0-9-.88c0-.77-.11-1.54-.11-2.2.11-3.73.66-6.48,1-9.89.66-5.71-8.46-8.13-10.88-3-1.65,3.73-1.76,7.91-1.87,12,0,1.54,0,3.3.11,5.17a26,26,0,0,0-12,9.12c-3.85,5.49-4.29,13.07-3.08,19.55C270,95.2,275.85,99.82,282.33,102.35ZM319.58,110c7.47,6.49,6.92,15.83,1.65,22.53-.33-2.2-.66-4.29-.88-6.16-.77-5.6-1.21-11.2-1.43-16.8C319.14,109.7,319.36,109.92,319.58,110Zm-8.24,27.58a10.84,10.84,0,0,1,.22,1.87,20.59,20.59,0,0,1-13.08-1c-.22-4.29-.44-8.46-.44-12.75.11-7,.11-13.84-.32-20.76,1.53.11,3.18.22,4.72.22,2,.11,4.07.22,5.93.44.22,6.48.55,12.85,1.32,19.23C310.24,129.15,310.9,133.33,311.34,137.61ZM303.1,69.27a30.36,30.36,0,0,1,5.27,1.21v4.18c0,6.37-.11,12.74-.11,19-3.84-.33-7.91-.44-11.75-.65-1-7.37-2.09-14.73-2.86-22.09-.11-.66-.11-1.32-.22-1.87A35.4,35.4,0,0,1,303.1,69.27Zm-20.55,4.62a8.31,8.31,0,0,1,2-1.76c.44,6.37,1.21,12.75,2,19.12-.11,0-.22-.11-.33-.11a10.16,10.16,0,0,1-5.05-3.63C278.6,83.34,280.14,77.18,282.55,73.89Z"/><path class="cls-1" d="M456.91,196.28a13.44,13.44,0,0,0,1.54,3.08,13.31,13.31,0,0,0,.77,1.86,8.68,8.68,0,0,0,5.6,4.18,7.85,7.85,0,0,0,7.91-2.09,8.44,8.44,0,0,0,2.31-3.95,9.22,9.22,0,0,0-.88-6.82,10.14,10.14,0,0,0-4.4-4.17c-1.42-.88-3.73-2-5.49-1.76a21.64,21.64,0,0,0-2.64.33c-.1,0-.21.11-.32.11h-.22a1.86,1.86,0,0,1-.55.22A6.25,6.25,0,0,0,457,190a5.57,5.57,0,0,0-.66,3.73A20.81,20.81,0,0,0,456.91,196.28Z"/><path class="cls-1" d="M441.49,475.85a1.34,1.34,0,0,1-.07-.18A.72.72,0,0,0,441.49,475.85Z"/><path class="cls-1" d="M445.49,473.8l-.22-.22a1.56,1.56,0,0,0-.66-.22,2.4,2.4,0,0,0-.55-.33,1.92,1.92,0,0,0-2.64,2.64c.08.15.1.24.07.18a1.81,1.81,0,0,0,.37.7,2.16,2.16,0,0,0,1,1,1.64,1.64,0,0,0,1.21.44,2.07,2.07,0,0,0,.88-.22,2.18,2.18,0,0,0,1.53-1.54A2.09,2.09,0,0,0,445.49,473.8Z"/><path class="cls-1" d="M447,471.05c1.1.66,2.2,1.32,3.41,2,1.43.77,2.64,1.65,4.39,1.43a2,2,0,0,0,1.1-3c-.55-1.31-2-1.75-3.18-2.41a27.81,27.81,0,0,0-4.07-2C446.36,466.11,445.05,469.85,447,471.05Z"/><path class="cls-1" d="M456.36,464.46c2,1.54,6.7,5.39,9.34,4.29a1.85,1.85,0,0,0,1.32-2.2c-.77-2.31-4.18-3.52-6.15-4.72a31.06,31.06,0,0,1-3.41-2.31,9.51,9.51,0,0,0-1.1-.77c-.33-.33-.44-.44-.55-.44-.77-1.43-3.18-1.65-3.62.33C451.53,461.17,454.6,463.14,456.36,464.46Z"/><path class="cls-1" d="M461.63,450c-1.54.22-1.75,2.64-.43,3.3a32.72,32.72,0,0,1,4.5,2.08c1.65,1.1,3.08,2.42,4.72,3.41a2,2,0,0,0,2.31,0,2.14,2.14,0,0,0,1.1-1.32,2.5,2.5,0,0,0-.55-2.31C470.42,452.16,465.81,449.41,461.63,450Z"/><path class="cls-1" d="M484.71,451.39a1.41,1.41,0,0,0,.55-1.87c-1.21-2.42-4-2.86-6.27-3.73-3.4-1.32-6.81-2.64-10.32-3.63-2.31-.66-3.85,2.86-1.65,3.84,3.08,1.43,6.37,2.75,9.55,4C479.32,451,482,452.6,484.71,451.39Z"/><path class="cls-1" d="M480.53,436.34c4.07.88,7.36,2.63,11.1,4.5a2.41,2.41,0,0,0,2.42-4.17,27.55,27.55,0,0,0-13-4.62C478.55,431.83,478.11,435.79,480.53,436.34Z"/><path class="cls-1" d="M483.5,423.81c3.4,1.1,6.7,2.2,9.89,3.52,2.63,1.1,6,3.62,8.68,1.76a1.12,1.12,0,0,0,.55-1.1c-.55-3.08-4.29-3.74-6.71-4.73a64.6,64.6,0,0,0-11.31-3.62A2.16,2.16,0,0,0,483.5,423.81Z"/><path class="cls-1" d="M488.44,412.17c3.41,2,7.36,3,11.21,4.28,3,1,6.48,3.41,9.56,2a1.48,1.48,0,0,0,.66-1.54c-.78-3.3-4.95-4.06-7.69-4.94-4-1.43-8-2.86-12-3.85A2.25,2.25,0,0,0,488.44,412.17Z"/><path class="cls-1" d="M492.51,399.42c3.07,1.21,6.15,2.2,9.23,3.41,2.85,1.1,6.7,4.06,9.77,3.07a1.75,1.75,0,0,0,1.21-2.08c-.88-3.08-4.61-3.85-7.36-4.95A90,90,0,0,0,493.72,395,2.28,2.28,0,0,0,492.51,399.42Z"/><path class="cls-1" d="M511,386.24c-4.94-2.09-10-4.29-15.38-4.95a2.06,2.06,0,0,0-1.1,4c4.95,1.87,9.67,3.51,14.51,5.71,3.29,1.43,7.91,4.62,11.53,3.63a1.91,1.91,0,0,0,1.1-2.75C519.64,388.54,514.37,387.67,511,386.24Z"/><path class="cls-1" d="M525.25,378.33c-1.76-2.42-4.51-3.74-7-5.17a117.24,117.24,0,0,0-11-5.49c-3.3-1.43-12.31-6.59-15.38-2.42-1.43,1.87,1.54,4.07,3.18,2.53-.87.77-.55.33.77.77a19.36,19.36,0,0,1,3.3,1.1c2.86,1.21,5.71,2.52,8.46,4,4.94,2.42,9.56,5.72,14.5,7.91C523.93,382.39,526.9,380.41,525.25,378.33Z"/><path class="cls-1" d="M492.51,349.32c7.91,2.31,14.61,7,22.19,10.22,4.18,1.87,8.68,4.83,13.07,5.49,2.86.44,4.73-3.18,2.09-4.83-4.39-2.64-9.89-4.07-14.61-6.15-7.14-3.08-14.17-8.46-22.2-8.79C490.64,345.15,490.31,348.66,492.51,349.32Z"/><path class="cls-1" d="M519.2,333.94c-4.61-2.64-9.67-5.38-15.16-5.27-2.74.11-2.63,3.95,0,4.28,5.17.55,10.11,4.07,14.4,6.7,2.41,1.43,4.83,3.08,7.35,4.51,2.2,1.32,4.62,3.08,7.26,3a2.36,2.36,0,0,0,1.65-4c-1.76-2-4.84-3-7-4.28C524.81,337.35,522.06,335.59,519.2,333.94Z"/><path class="cls-1" d="M502.94,313.4A45.79,45.79,0,0,1,517,319.55a66.32,66.32,0,0,1,7.14,5.16c1.54,1.21,2.86,2.2,4.83,1.65a1.65,1.65,0,0,0,1.1-1.54c.33-4.06-7.47-7.91-10.44-9.78-4.83-3-10.33-5.6-16-5.93C501.08,309,500.64,312.85,502.94,313.4Z"/><path class="cls-1" d="M505,295.49c-2,1.21-.66,4.83,1.54,3.84,2.52-1,5.71,1.87,7.58,3.19,2.86,2.09,5.27,5.05,8.35,6.81a2.27,2.27,0,0,0,3.07-3.07c-2.3-3.74-6.69-6.71-10.43-8.9C512.28,295.49,508.22,293.62,505,295.49Z"/><path class="cls-1" d="M505,285.6a27.42,27.42,0,0,1,5.17,1.32c1.64.55,2.74,2,4.39,2.75a2.12,2.12,0,0,0,2.86-2.86c-1.87-3.74-8.14-5.27-11.87-4.84C503.71,282.3,502.83,285.27,505,285.6Z"/><path class="cls-1" d="M508.11,274.28a1.11,1.11,0,0,1,.33.11c.11.11.22.11.22.22s.22.11.33.11a2.09,2.09,0,0,0,1.65.88,1.91,1.91,0,0,0,1.86-1.32c.33-1.42-.66-2.3-1.64-3.07a4.12,4.12,0,0,0-2.75-.66,1.79,1.79,0,0,0-1.87,1.87c0,1.1.77,1.64,1.87,1.75C507.78,274.17,508,274.28,508.11,274.28Z"/><path class="cls-1" d="M504.15,260.77H504a1.64,1.64,0,0,0-2.08,1.65A1.62,1.62,0,0,0,504,264h.11A1.65,1.65,0,0,0,504.15,260.77Z"/><path class="cls-1" d="M389.78,539.61c3.74,2.2,7.91,3.63,11.65,5.82,2.09,1.21,4.06,2.53,5.93,3.85s3.19,3,5.17,3.84a2.29,2.29,0,0,0,3.07-3.18c-2-4.07-7.8-6.7-11.64-8.79s-8.79-4.51-13.3-4.73A1.72,1.72,0,0,0,389.78,539.61Z"/><path class="cls-1" d="M387.15,526.43c4,2.74,8.56,4.5,13.07,6.15,2.42,1,4.94,2,7.36,3.19,2.2,1.2,3.41,2.52,6,2,1-.11,1.32-1.21,1.21-2.08-.66-4-6.59-5.39-9.78-6.6-5.38-2.08-10.76-3.51-15.82-6.15A2,2,0,0,0,387.15,526.43Z"/><path class="cls-1" d="M397.69,521a11.16,11.16,0,0,1,5.61,1.1c2.08.77,3.73,2.2,5.71,3.08s4.72-1,3.19-3.19c-2.64-4.17-10.44-6.37-15.06-4.72C395.28,518.08,395.39,521.26,397.69,521Z"/><path class="cls-1" d="M413.18,514a4.46,4.46,0,0,0-4.06,1,1.93,1.93,0,0,0-.66,2.64,2.07,2.07,0,0,0,2.64.77l.11-.11c.11.11.44.11.44.22h.11a2.4,2.4,0,0,0,.55.44,1.9,1.9,0,0,0,1.09.44,2.12,2.12,0,0,0,2.64-2C416.26,515.66,414.61,514.56,413.18,514Z"/><path class="cls-1" d="M181,543.24c-.77-.44-2.31-1.32-2.42-1.43v.11a1.76,1.76,0,0,0-2.86.22v.11a1.89,1.89,0,0,0,0,1.87c1.54,2.19,4,3.73,6.16,5.38,3.29,2.53,6.7,5.6,10.43,7.36,2.2,1.1,5-1.76,2.75-3.63-2.75-2.41-6-4.28-9.12-6.48C184.33,545.65,182.69,544.44,181,543.24Z"/><path class="cls-1" d="M202.9,544.66c4.29-4.17-16.92-14.72-19.56-17-2.09-1.65-4.83,1-3,3,3.29,3.41,7.58,5.71,11.53,8.24a64,64,0,0,1,6.93,5.28C199.93,545,201.69,546,202.9,544.66Z"/><path class="cls-1" d="M208.72,529.06c-1.42-3.51-7-5.38-10.21-7.25-3.52-2.09-7.69-3.84-10.77-6.59-1.87-1.65-4.61,1-2.75,2.86a48.72,48.72,0,0,0,9.34,6.7c2.09,1.32,4.29,2.64,6.48,3.84,1.87,1.21,3.74,3.08,6.05,3A2.05,2.05,0,0,0,208.72,529.06Z"/><path class="cls-1" d="M202.24,511.7a2.08,2.08,0,0,0-1.43,2.53,7.55,7.55,0,0,0,2,2.86,8.31,8.31,0,0,0,1.54,1.21,2.84,2.84,0,0,0,2.31.55,1.88,1.88,0,0,0,1.31-2.31,2.48,2.48,0,0,0-.87-1.43,3.86,3.86,0,0,0-.88-.55c.11,0-.22-.22-.33-.33a5.26,5.26,0,0,0-.77-.66v-.11c-.11,0-.11,0-.11-.11s-.33-.66-.22-.22A2,2,0,0,0,202.24,511.7Z"/><path class="cls-1" d="M31.51,394.48c-2-.55-2.86,1.76-1.76,3.07,1.43,1.87,3.52,3.41,5.17,5.17,1.75,2,3.29,4.28,5.38,5.93s4.17-1.32,3.19-3.19c-1.21-2.19-3.41-4.17-5.17-6C36.34,397.55,34.15,395.36,31.51,394.48Z"/><path class="cls-1" d="M49.31,405.57c.55-.11,1.32-.44,1.43-1.09a3.48,3.48,0,0,0-.66-2.75l-1.32-1.65c-.66-.88-1.43-1.87-2.09-2.86-1.32-2.19-4.39-.22-3.4,2a12.47,12.47,0,0,0,1.86,3.08C46.12,403.71,47.22,405.68,49.31,405.57Z"/><path class="cls-1" d="M57,396.24a.38.38,0,0,1-.11-.22.38.38,0,0,0-.11-.22A1.77,1.77,0,0,0,55,394.37a2,2,0,0,0-2,1.87c-.11,2.3,1.87,5.05,4.29,5.16a1.85,1.85,0,0,0,1.76-2.31,8.61,8.61,0,0,0-1.76-2.2v-.22A1.6,1.6,0,0,1,57,396.24Z"/><path class="cls-1" d="M64.91,394.48a1.79,1.79,0,0,0-1.65,1.76,4.39,4.39,0,0,0,.33,2.08,2.37,2.37,0,0,0,1.32,1,1.63,1.63,0,0,0,.77.11.83.83,0,0,0,.44-.11A1.33,1.33,0,0,0,67,398.1a.4.4,0,0,0-.11-.33,1.32,1.32,0,0,0-.22-.88.11.11,0,0,0,.11.11.38.38,0,0,1-.11-.22v-.54A1.81,1.81,0,0,0,64.91,394.48Z"/><path class="cls-1" d="M66.78,397c0,.11.11.22,0,0Z"/><path class="cls-1" d="M210.37,227.81c.66-2.86-2.86-5.16-4.83-6.7-3.08-2.53-6.15-4.73-9.12-7.25-1.21-1.1-3.52.33-2.42,1.87a50.4,50.4,0,0,0,7.14,7.25c1.32,1.1,2.64,2.3,3.85,3.51s2,2.53,3.84,2.53A1.76,1.76,0,0,0,210.37,227.81Z"/><path class="cls-1" d="M217.84,223.53a1.62,1.62,0,0,0,1.54-2.09c-1.1-3-4.61-4.07-7.25-5.71a32.83,32.83,0,0,1-10.55-8.79c-1.54-2-4.94-.11-3.51,2a42.19,42.19,0,0,0,8.9,8.9C209.61,219.79,214.33,224,217.84,223.53Z"/><path class="cls-1" d="M224.32,214.41c-1.2-3.52-5.93-5.39-8.78-7.25-3.3-2.2-6.71-5.28-10.33-6.82a1.82,1.82,0,0,0-2.42,2.53c1.54,3.19,5.49,5.38,8.24,7.47,1.76,1.32,3.74,2.64,5.6,3.85S220,217,222.35,217A2.09,2.09,0,0,0,224.32,214.41Z"/><path class="cls-1" d="M224.43,201.33a16.05,16.05,0,0,0-4.94-4.06c-2.2-1.32-4.5-2.64-6.7-4.07-2-1.21-3.85,1.54-2.31,3.08a28.42,28.42,0,0,0,5.39,4.28c1.86,1.21,3.62,2.64,5.38,4a2.45,2.45,0,0,0,2.31,0,2.08,2.08,0,0,0,.55-.44A2.35,2.35,0,0,0,224.43,201.33Z"/><path class="cls-1" d="M224.87,189.91a1.48,1.48,0,0,0-.55-1.32,2.54,2.54,0,0,0-.76-.77,3.45,3.45,0,0,0-1.76-.66,1.74,1.74,0,0,0-1.76,1.76,1.72,1.72,0,0,0,1.65,1.76,3.29,3.29,0,0,0,1.1.44h.11a1.2,1.2,0,0,0,.88,0C224.43,190.9,225,190.57,224.87,189.91Z"/><path class="cls-1" d="M349.24,163.65a1.25,1.25,0,0,0,.22-2.31c-.77-.44-1.54-.55-2.41-1a7.41,7.41,0,0,1-2.2-1.53c-1.54-1.32-3.74.87-2.2,2.3S346.94,164.53,349.24,163.65Z"/><path class="cls-1" d="M347.7,150.68a54.49,54.49,0,0,0,7.15,3.63c2,.88,5,3,7.14,1.54a1.7,1.7,0,0,0,.77-1.76c-.55-2.31-3.52-2.75-5.5-3.51-2.52-1-5.16-2.09-7.58-3.3A2,2,0,0,0,347.7,150.68Z"/><path class="cls-1" d="M359.68,143.22c3.3,1.42,7,4.06,10.55,4.5,1.65.11,2.63-2,1.86-3.41-1.53-2.63-5.38-3.62-8.24-4.72-3.51-1.43-7.25-2.42-10.65-4.29-1.87-1.1-4.18,1.54-2.42,3.08A31.88,31.88,0,0,0,359.68,143.22Z"/><path class="cls-1" d="M373.08,131.35a62.29,62.29,0,0,0-7.14-3.74,44.52,44.52,0,0,0-4.17-1.75l-2-.66a.4.4,0,0,1-.33-.11,2.71,2.71,0,0,0-2.2.44,2,2,0,0,0-.22,2.3c1,1.65,3.74,3,5.94,4s4.28,2.2,6.37,3.4c2.41,1.54,4.83,3.85,7.8,3.63,1.1-.11,2.31-1.1,1.76-2.31C377.81,133.77,375.5,132.78,373.08,131.35Z"/><path class="cls-1" d="M379.24,119.37c-5.61-4.06-13.08-6.26-19.56-8.79-2.2-1-3.3,2.53-1.54,3.74,5.82,3.84,12.64,5.71,18.57,9.34C379.57,125.42,381.87,121.13,379.24,119.37Z"/><path class="cls-1" d="M359.68,100.15a1.84,1.84,0,0,0-.44,3.62,59.41,59.41,0,0,1,9.56,3.74c3,1.32,6,3.62,9.33,4.17,1.87.33,4-2.19,2.09-3.73-2.74-2.31-6.7-3.52-10.1-5S363.3,100.26,359.68,100.15Z"/><path class="cls-1" d="M359.35,89.38c2.75,2.42,6.15,3.74,9.45,5.27,2.2.88,7.58,4.95,9.78,2.75,2.63-2.64-4.18-5.27-5.61-5.93-3.73-1.65-7.91-2.64-11.31-5.06C359.9,85.2,357.7,88,359.35,89.38Z"/><path class="cls-1" d="M361.22,74.22c-2-.11-2.42,3.07-.66,3.52a16.59,16.59,0,0,0,3.07,1.53c1.65.66,3.41,2,5.28,2.2,1.87.44,3.84-2,2.09-3.52-1.32-1.2-3.08-1.64-4.62-2.3a18.56,18.56,0,0,0-4.17-1.32A3,3,0,0,0,361.22,74.22Z"/><path class="cls-1" d="M359.68,67.85a11.24,11.24,0,0,1,2.2.44c1,.43,1.54,1,2.63,1a1.33,1.33,0,0,0,1.43-1c.66-3.52-3.73-4.4-6.26-4C357.92,64.55,357.92,67.52,359.68,67.85Z"/><path class="cls-1" d="M358.14,57.41a1.82,1.82,0,0,0,1.32-.55A1.76,1.76,0,0,0,360,55.1c0-.22-.11-.33-.11-.44a1.78,1.78,0,0,0-1.76-1.32,1.75,1.75,0,0,0-1.65,1.32c0,.11-.11.22-.11.44a1.73,1.73,0,0,0,.22,1.43A1.76,1.76,0,0,0,358.14,57.41Z"/><path class="cls-2" d="M206.54,383.74a4.47,4.47,0,0,1-.51,3.46l-35.21,59.93a4.6,4.6,0,0,1-2.74,2.16,4.08,4.08,0,0,1-3.37-.42,4.24,4.24,0,0,1-2-2.76,4.5,4.5,0,0,1,.51-3.47l35.21-59.93a4.58,4.58,0,0,1,2.73-2.16,4.11,4.11,0,0,1,3.37.42A4.24,4.24,0,0,1,206.54,383.74Z"/><path class="cls-2" d="M228.44,394.58a4.48,4.48,0,0,1-.11,3.5L207.8,444.44a4.55,4.55,0,0,1-2.47,2.46,4.12,4.12,0,0,1-3.4,0,4.25,4.25,0,0,1-2.34-2.52,4.48,4.48,0,0,1,.11-3.5l20.53-46.36A4.58,4.58,0,0,1,222.7,392a4.12,4.12,0,0,1,3.4,0A4.25,4.25,0,0,1,228.44,394.58Z"/><path class="cls-2" d="M275.87,415.28q4.13,8.28.55,23.16t-11,20.4Q258,464.35,246,461.49l-16.37-3.94a4.12,4.12,0,0,1-2.62-1.81,3.94,3.94,0,0,1,1.33-5.54,4.14,4.14,0,0,1,3.15-.43l16.38,3.94q7.4,1.77,12.34-2.39t7.55-14.95q2.59-10.78.07-16.74T258,411.9L241.58,408a4.12,4.12,0,0,1-2.62-1.81,3.94,3.94,0,0,1,1.33-5.54,4.17,4.17,0,0,1,3.16-.43l16.38,3.94Q271.76,407,275.87,415.28Z"/><path class="cls-2" d="M345.85,439.38q.45,13.89-5.79,22.15T321,470.22q-12.85.43-19.54-7.35t-7.15-21.77a55.39,55.39,0,0,1,.84-11.24,50.1,50.1,0,0,1,3.1-10.91l-3.9.13a3.63,3.63,0,0,1-2.76-1.11,4,4,0,0,1-.19-5.64,3.75,3.75,0,0,1,2.69-1.24l26.86-.9Q344.85,409.4,345.85,439.38Zm-8.76.29q-.37-11.19-3.86-16.48t-12.06-5l-14.6.48a36.73,36.73,0,0,0-2.87,10.21A67,67,0,0,0,303,440.8q.38,10.9,4.64,16.36t13,5.17Q337.82,461.76,337.09,439.67Z"/><path class="cls-2" d="M362.06,404.94a4.47,4.47,0,0,1,2,2.85l6.18,25.77a4.55,4.55,0,0,1-.47,3.45,4.07,4.07,0,0,1-2.71,2,4.27,4.27,0,0,1-3.4-.57,4.47,4.47,0,0,1-2-2.85l-6.18-25.77a4.57,4.57,0,0,1,.47-3.46,4.1,4.1,0,0,1,2.71-2A4.28,4.28,0,0,1,362.06,404.94Z"/><path class="cls-2" d="M418.18,387q6.69,2.33,11.53,12.65L444,430.05a4.58,4.58,0,0,1,.24,3.48,4.1,4.1,0,0,1-2.25,2.55,4.29,4.29,0,0,1-3.44.12,4.52,4.52,0,0,1-2.57-2.38L421.69,403.4q-3.22-6.87-6.91-8.3c-2.45-.94-5.18-.71-8.17.69L392,402.66a20.8,20.8,0,0,0,.85,7.67,64.35,64.35,0,0,0,3.55,9.05l12.71,27.06a4.58,4.58,0,0,1,.23,3.48,4.14,4.14,0,0,1-2.24,2.55,4.29,4.29,0,0,1-3.44.12,4.49,4.49,0,0,1-2.57-2.38l-12.92-27.52a39.07,39.07,0,0,1-2.88-8.65,21.45,21.45,0,0,1-.35-8.07l-4,1.87a4.2,4.2,0,0,1-3.18.22,4,4,0,0,1-2.42-5.16,4.18,4.18,0,0,1,2.2-2.31l25.65-12Q411.49,384.67,418.18,387Z"/><path class="cls-2" d="M238.69,256.92q6.54,3,10.29,13.73L260,302.38a4.52,4.52,0,0,1-.16,3.5,4.24,4.24,0,0,1-2.58,2.32,4.59,4.59,0,0,1-5.85-2.83l-11.06-31.72q-2.5-7.18-6.09-8.95t-8.39-.09l-15.68,5.46a21.8,21.8,0,0,0,.68,6.81q.89,3.45,2.76,8.83l10.24,29.37a3.8,3.8,0,0,1-.2,3.08,4.06,4.06,0,0,1-2.36,2l-11.9,4.14a4,4,0,0,1-4.9-5.55,4,4,0,0,1,2.27-2l7.18-2.5-9.05-26q-3.22-9.25-2.65-15.49l-5.19,1.81a4.37,4.37,0,0,1-3.26-.09,3.66,3.66,0,0,1-2.12-2.28,3.74,3.74,0,0,1,.24-3.1,4.38,4.38,0,0,1,2.5-2.09l28.8-10Q232.15,254,238.69,256.92Z"/><path class="cls-2" d="M311.72,251.54q7.63,7.62,8.24,21.31.69,15.38-6.91,23.57t-23.18,8.88a54.88,54.88,0,0,1-13.46-.9,4,4,0,0,1-2.36-1.3,3.86,3.86,0,0,1-1-2.46,3.81,3.81,0,0,1,1.31-3.21,4,4,0,0,1,3.21-1q4,.62,6.55.86a38.21,38.21,0,0,0,5.41.11q11.88-.53,16.94-6.3T311,273.24q-.47-10.59-5.55-15.92T291,252.4c-4.92.22-8.76,1.47-11.49,3.76a10.82,10.82,0,0,0-3.84,9.33q.27,6.09,3.3,7.86a11.49,11.49,0,0,0,6.42,1.62,14.55,14.55,0,0,0,4-1,17.63,17.63,0,0,1,2.88-.73,3,3,0,0,1,3.34,3.15q.13,3.1-3.25,4.65a20.18,20.18,0,0,1-7.58,1.74A22.4,22.4,0,0,1,272.88,280q-5.69-3.11-6.14-13.29-.44-9.79,5.81-15.73t18.14-6.45Q304.07,243.93,311.72,251.54Z"/><path class="cls-2" d="M348,249.09a4.44,4.44,0,0,1,.86,3.41l-7.38,50.16a4.52,4.52,0,0,1-1.76,3,4.26,4.26,0,0,1-3.36.87,4.61,4.61,0,0,1-3.88-5.22l7.38-50.16a4.52,4.52,0,0,1,1.76-3,4.28,4.28,0,0,1,3.36-.87A4.47,4.47,0,0,1,348,249.09Z"/><path class="cls-2" d="M373.41,277.48a4.49,4.49,0,0,1,.15,3.52l-16.1,43.83a4.56,4.56,0,0,1-2.34,2.61,4.28,4.28,0,0,1-3.47.16,4.6,4.6,0,0,1-2.73-5.9L365,277.86a4.5,4.5,0,0,1,2.35-2.6,4.26,4.26,0,0,1,3.46-.17A4.45,4.45,0,0,1,373.41,277.48ZM417,269.8a4.82,4.82,0,0,1,.34,4.17L406.2,304.38Q402.3,315,395.5,318t-15.34-.15a37.35,37.35,0,0,1-6.61-3.17,5.06,5.06,0,0,1-1.92-2.31,3.71,3.71,0,0,1,0-2.78,3.85,3.85,0,0,1,2.41-2.36,3.56,3.56,0,0,1,3.34.32c.81.51,1.64,1,2.51,1.45a24.8,24.8,0,0,0,3.07,1.34Q393,314,397.65,301.24l10.24-27.88-34.07-12.51a4.32,4.32,0,0,1-2.47-2.13,3.87,3.87,0,0,1,2-5.35,4.37,4.37,0,0,1,3.26,0l37,13.58A6.35,6.35,0,0,1,417,269.8Z"/></g></g></svg>