<svg xmlns="http://www.w3.org/2000/svg" xmlns:xlink="http://www.w3.org/1999/xlink" viewBox="0 0 277.98 449"><defs><style>.cls-1{fill:none;}.cls-2,.cls-3{fill:#ffde55;fill-rule:evenodd;}.cls-2{opacity:0.58;}.cls-3{opacity:0.7;}.cls-4{clip-path:url(#clip-path);}</style><clipPath id="clip-path" transform="translate(0 65.44)"><circle class="cls-1" cx="138.99" cy="119.79" r="98"/></clipPath></defs><g id="Layer_2" data-name="Layer 2"><g id="Layer_1-2" data-name="Layer 1"><path class="cls-2" d="M278,144.2C276.68,93.93,221,55.1,153.65,57.45s-121,45-119.7,95.29,56.93,89.1,124.31,86.75,121-45,119.69-95.29Z" transform="translate(0 65.44)"/><path class="cls-3" d="M244,120.13C242.75,69.87,187.1,31,119.72,33.39s-121,45-119.7,95.28S57,217.78,124.33,215.42s121-45,119.69-95.29Z" transform="translate(0 65.44)"/><path class="cls-3" d="M273.65,86.85C272.37,36.58,216.72-2.26,149.34.1s-121,45-119.69,95.29,56.92,89.1,124.3,86.74,121-45,119.7-95.28Z" transform="translate(0 65.44)"/><g class="cls-4"><image width="900" height="1600" transform="translate(21.43) scale(0.28 0.28)" xlink:href="../../../../%D7%A2%D7%99%D7%A6%D7%95%D7%91%20%D7%9E%D7%9E%D7%A9%D7%A7%20%D7%9E%D7%A9%D7%AA%D7%9E%D7%A9/%D7%90%D7%AA%D7%A8%20%D7%A7%D7%95%D7%A4%D7%AA%20%D7%97%D7%99%D7%A1%D7%9B%D7%95%D7%9F/%D7%AA%D7%9E%D7%95%D7%A0%D7%95%D7%AA/WhatsApp%20Image%202020-05-30%20at%2017.15.31.jpeg"/></g></g></g></svg>