<svg xmlns="http://www.w3.org/2000/svg" viewBox="0 0 296.49 63.29"><defs><style>.cls-1{fill:#ffde55;}</style></defs><g id="Layer_2" data-name="Layer 2"><g id="Layer_1-2" data-name="Layer 1"><path class="cls-1" d="M295.84,44.45c1.54-3.26.82-3.62-7.23-3.62-.9,0-1.93.13-2.41-.36L289,40c1.23,0,1.29-.33,1.4-.68,3.7-1.51,2.21-3.47,2.59-5.26a14.59,14.59,0,0,0,.66-7.18c.59-.49-.06-.85-.72-1.21-.24-1,1-2.56-4-2-4.58.15-3.57-1.23-3.66-2.3,1.67-1.55-.4-3.35,1.9-4.85,4.53-2.17,3.85-4.7,3-7.25.9-1.06,1.14-2.12,0-3.19,0-4.3-2.28-5.47-8.94-5.19a65.13,65.13,0,0,0-9.61-.39l1,.4h0a5.43,5.43,0,0,0-1-.41,2,2,0,0,0-.82,0A116.31,116.31,0,0,0,256.05.07c-10.71-.26-21.32.25-31.94.71-5.36.62-11.13-.06-16.39.89-6.8-1-13.18.46-19.79.63-4.06.1-8.36-.37-12.17.61-8.67-.13-16.95.88-25.35,1.5h0c-4.07.71-8.66,0-12.72.78a.78.78,0,0,0-.59,0h0l-14.59.5A127,127,0,0,0,108,6.06h-1a66.7,66.7,0,0,1-12.51.44,97,97,0,0,0-12.63.77c-3.93.08-7.78.36-11.57.8h-1a52.91,52.91,0,0,0-9.16,1c4.47-.25,4.47-.25,5.21.54-3.12.57-6.72.14-9.8.81a34.08,34.08,0,0,0-7,.38h0c-2.25,0-4.6-.08-5,1.22-.47,1.46-1,2.9-1.48,4.36H40.23l-4.74.52c-2,0-4.11-.27-5.93.33l-1.76.08a10,10,0,0,0-4.05.32c-1,.06-2.19-.11-2.79.41-.82.17-1,.47-1,.82-.28,0-.56,0-.84,0a12.93,12.93,0,0,0-1.84,0c-.39.59,1.61.64,1.69,1.16-1,.38-3,.26-3.14,1,0,.05,1.44.16,2.21.24l.91.67c-1,.55.25.6,1,.77l1.93.44-3.76,3.54-1,1c.18.27.26.57,1.14.62h0c.53.81,1.18,1.57,3.6,1.68v.65c-.89.2-1.12.4,0,.6l1.85.7c-.92.16-2.07.18-2.52.66l1.68.24c1.58,0,3.16,0,4.74-.06h0l-4.74.06,3.76.65h0c-1.92.13-4.14-.05-5.44.95,4,0,7.51-.58,11.18-.85,0,.26.11.51.17.77-1.06,1.1-4.21,1.15-5.82,2-1.62.59-3.85.49-5.67.85-1.5.45-3.5-.13-5,.41h0c-2.6.13-5.4-.43-7.8.38l-2.86.48c-.95,0-2.1-.25-2.68.31-.2.4-1.86.29-1.65.78C1.66,41,2.74,42.25,0,43.42c-.18.08,1,.7,1.53,1.06l1,1.12c.13.7-.69,1.46.82,2.06l1.07.78c.95,1-2,2.66,3.12,2.81h0l1.74.48a18.52,18.52,0,0,0,5.31,0c.18,0,.28.08.47.1a4.61,4.61,0,0,0,1.9-.11l1.74-.06c2,.2,4.32-.32,6.05.47a.53.53,0,0,1-.2.38,1.87,1.87,0,0,0,.11,2.17h0c0-.72-.07-1.45-.11-2.17-1.47.78-.58,1.67-.69,2.52-1.72.87.39,1.77-.09,2.65a1.22,1.22,0,0,1,0,2.05c-.06.26-.11.52-.16.78-1.27,1.41,2.73.4,3,1.11-2.2,1.32-1,1.77,2.44,1.6,1.67-.09,3.32-.25,5-.37a81.14,81.14,0,0,0,12.4.4h.27c3.23-.4,6.58,0,9.83-.24,0,0,0,0,0,0,.36-.05.73,0,1.09,0a1.7,1.7,0,0,1-.19-.19h.4l1.79-.32h0c-.9-.19-1.66-.24-1.79.32-.16,0-.24.11-.21.19l4.69-.13c3.6,0,7.29.44,10.79-.28l4.48-.1c3-.07,6.17.39,9.07-.31A40.9,40.9,0,0,1,93,62c3-.1,6.24.41,9.15-.34l2.6-.06c3.32-.11,6.77.44,10-.33l8.37-.07c4.31-.11,8.72.42,12.93-.33l10.58-.07,3-.33a2.92,2.92,0,0,0,2.06,0,55.54,55.54,0,0,0,9.12,0h0a10.94,10.94,0,0,0,3.69.26c16,.15,32.05.34,48.07.39,10.7,0,21.39-.14,32.08-.23h0c1.64-.06,3.26-.14,4.86-.3h.72a15.44,15.44,0,0,1,1.68-.12c9.47-.74,20,1.05,28.43-2.14-.44-.15-.81,0-1.27,0,.1,0,.24,0,.35-.05a3,3,0,0,1,.92,0A36.32,36.32,0,0,0,289,57.17a6.66,6.66,0,0,0,3.75-1.09c2.94-1.29.11-3,2-4.4,1.11-.61.59-1.25.21-1.89,1.48-1.19.36-2.48.76-3.72C296.49,45.54,296,45,295.84,44.45Z"/></g></g></svg>