<svg id="Layer_1" data-name="Layer 1" xmlns="http://www.w3.org/2000/svg" viewBox="0 0 1280 2000"><defs><style>.cls-1{fill:#cdf2f2;}.cls-2{fill:#eefbfc;}</style></defs><title>NEWBACK</title><path class="cls-1" d="M-74.26,344.35c.4-183.42,275-234.17,386.18-191.19,45.85,17.73,134,36.31,209.47,137,52.25,69.74,57,121.59,144.56,148.08C780.86,473,827.46,316.3,925,368c72.16,38.25,258-57.19,355-70,53-7,176.55,53,197,53,89.59,0,47.48,141.57,51.85,282.64,6.54,211.6-31.39,1221.6-33,1316.27-156.27,3.71-1342.62,3.71-1570.08,3.71C-77.54,1953.62-75.08,721.14-74.26,344.35Z"/><path class="cls-2" d="M-81.81,390.73c.4-183.42,275-234.17,386.18-191.19,45.86,17.73,134,36.31,209.47,137,52.26,69.74,57,121.59,144.57,148.08C773.31,519.4,818.46,355.3,916,407c72.16,38.25,239.84-49.14,331-57,58-5,210.15.95,230.6.95,89.59,0,39.34,188,43.7,329.07,6.55,211.6-31.39,1221.6-33,1316.27C1332,2000,145.66,2000-81.81,2000-85.08,2000-82.62,767.52-81.81,390.73Z"/></svg>