<svg id="Layer_1" data-name="Layer 1" xmlns="http://www.w3.org/2000/svg" viewBox="0 0 1280 1024"><defs><style>.cls-1{fill:#cdf2f2;}.cls-2{fill:#e7f9fa;}</style></defs><title>רקע מכירים להורים</title><path class="cls-1" d="M-111.52,322.34c.35-89.18,245.4-113.86,344.6-93C274,238,352.67,247,420,296c46.63,33.91,50.87,59.12,129,72,102.53,16.9,188-17.14,275,8,64.4,18.6,144.9,40,190,104,20.12,28.56,32.75,23,51,23,79.94,0,250.11-108.59,254-40,5.84,102.88-28,594-29.47,640-139.45,1.8-1198.08,1.8-1401,1.8C-114.44,1104.8-112.25,505.54-111.52,322.34Z"/><path class="cls-2" d="M-121.52,357.2C-121.17,268,153.35,230.64,252,254c38,9,160.56,60.08,224,114,10,8.5,13.45,9.87,17,12,5,3,6,6,49,18,100.09,27.93,212-25.14,299,0,64.4,18.6,109.9,35,155,99,20.12,28.56,33.75,31,52,31,79.94,0,282.11-108.59,286-40,5.84,102.88-53,603.83-54.47,649.86-139.45,1.8-1198.08,1.8-1401,1.8C-124.44,1139.66-122.25,540.4-121.52,357.2Z"/></svg>