<svg xmlns="http://www.w3.org/2000/svg" viewBox="0 0 1280 206.51"><defs><style>.cls-1{fill:#ffde55;}</style></defs><title>yellow_brush_1</title><g id="Layer_2" data-name="Layer 2"><g id="Layer_1-2" data-name="Layer 1"><path class="cls-1" d="M1277.18,145.06c6.64-10.66,3.54-11.83-31.19-11.84-3.92,0-8.35.43-10.42-1.18l12-1.55c5.32.14,5.57-1.07,6-2.22,16-4.94,9.54-11.32,11.19-17.17,3.9-7.77,4.2-15.59,2.86-23.43,2.54-1.59-.28-2.76-3.14-3.93-1-3.4,4.16-8.37-17.2-6.64-19.78.49-15.4-4-15.82-7.5,7.23-5-1.69-10.92,8.2-15.84,19.59-7.07,16.62-15.33,12.8-23.63,3.89-3.47,4.93-6.95.11-10.42,0-14-9.84-17.85-38.59-16.94-13.7-.79-27.26-2-41.46-1.26l4.29,1.28-.18,0a23.1,23.1,0,0,0-4.11-1.33,11.18,11.18,0,0,0-3.54-.15C1148.06-.52,1126.69.11,1105.42.23c-46.25-.84-92.07.8-137.91,2.33-23.15,2-48.06-.21-70.74,2.9-29.38-3.26-56.93,1.48-85.45,2-17.51.34-36.08-1.18-52.55,2-37.42-.42-73.15,2.87-109.44,4.89h0c-17.6,2.33-37.41,0-54.94,2.54a4.46,4.46,0,0,0-2.55.15h0q-31.5.81-63,1.62c-21-.36-41.9-.36-62.57,1.07l-4.34.05c-17.78,1.32-35.57,2.61-54,1.42-18.64-.16-36.7.91-54.5,2.51-17,.27-33.59,1.19-49.94,2.62l-4.16,0a297.7,297.7,0,0,0-39.55,3.29c19.28-.83,19.28-.83,22.5,1.76-13.48,1.84-29,.45-42.32,2.62-10.32,0-20.72-.24-30.38,1.25h0c-9.71,0-19.84-.25-21.64,4-2,4.74-4.24,9.46-6.39,14.19h-7.83l-20.46,1.7c-8.71,0-17.78-.88-25.62,1.08L120,56.5c-6.12-.12-12.44-.58-17.47,1.06-4.31.18-9.45-.36-12,1.33-3.55.56-4.34,1.55-4.46,2.67-1.21,0-2.43.06-3.63,0-2.76,0-7.68-.11-7.91.15-1.69,1.92,6.93,2.08,7.29,3.78-4.34,1.25-12.9.85-13.57,3.35,0,.19,6.22.53,9.56.81,1.31.71,2.6,1.43,3.91,2.16-4.47,1.81,1.06,2,4.26,2.53l8.37,1.43L78,87.33l-4.19,3.33c.75.9,1.09,1.88,4.91,2h0c2.25,2.63,5.09,5.1,15.52,5.46,0,.72,0,1.44,0,2.15-3.83.65-4.84,1.29,0,1.94l8,2.28c-4,.54-9,.61-10.91,2.15l7.27.8c6.84.12,13.65,0,20.44-.19h0l-20.44.19,16.25,2.12h0c-8.27.42-17.86-.16-23.5,3.1,17.27.12,32.44-1.91,48.27-2.77.24.83.49,1.67.74,2.5-4.57,3.6-18.18,3.76-25.11,6.46-7,1.91-16.61,1.6-24.51,2.76-6.44,1.48-15.07-.4-21.34,1.36l0,0c-11.23.4-23.29-1.4-33.69,1.23l-12.31,1.56c-4.14,0-9.09-.8-11.59,1-.86,1.28-8,1-7.13,2.54,2.42,4.26,7.11,8.52-4.66,12.34-.78.25,4.25,2.27,6.59,3.46L11,148.79c.57,2.27-3,4.75,3.55,6.71,1.53.86,3,1.72,4.59,2.57,4.1,3.12-8.67,8.66,13.51,9.16h0l7.54,1.57c7.67,1.17,15.28.4,22.89-.09.81.08,1.23.26,2.07.33a26.46,26.46,0,0,0,8.17-.37l7.51-.19c8.63.64,18.68-1.07,26.13,1.53a1.65,1.65,0,0,1-.87,1.22c-1.62,2.38-1.91,4.76.49,7.11h0l-.48-7.11c-6.36,2.55-2.52,5.47-3,8.22-7.43,2.85,1.68,5.78-.36,8.65,3.25,2.23,3.18,4.47,0,6.7-.23.85-.46,1.7-.68,2.55C96.6,202,113.87,198.66,115,201c-9.5,4.3-4.34,5.77,10.51,5.21,7.22-.28,14.34-.8,21.51-1.22a459.67,459.67,0,0,0,53.54,1.31l1.16,0c14-1.31,28.42.06,42.45-.79.06-.05-.07-.05,0-.09,1.54-.15,3.18.13,4.7-.1l-.83-.61,1.73,0,7.72-1h0c-3.88-.62-7.15-.79-7.72,1-.69.15-1,.36-.9.63l20.24-.41c15.55-.19,31.48,1.44,46.58-.92l19.35-.33c13.09-.23,26.63,1.28,39.18-1a232.53,232.53,0,0,1,27.45-.29c13.18-.31,26.92,1.36,39.48-1.1,3.75-.07,7.49-.14,11.23-.19,14.36-.36,29.26,1.43,43.07-1.07l36.1-.25c18.62-.34,37.65,1.4,55.84-1.07L633,198.5l12.8-1.08c2.91.61,5.83,1.1,8.88.08,13.16,1,26.28.54,39.38-.11h0c4.75,1.35,10.59.79,15.94.84,69.18.48,138.37,1.12,207.56,1.28,46.16.11,92.32-.47,138.48-.75h0c7.05-.21,14.05-.48,21-1,1,0,2.1,0,3.13-.05,2.28-.37,4.85-.2,7.23-.39,40.88-2.4,86.49,3.44,122.74-7-1.88-.5-3.49.11-5.49,0,.46-.14,1.06,0,1.51-.18a18.44,18.44,0,0,1,4,.14c13.21-.54,26.34-1.18,37.37-3.82,7.14-.41,13-1.4,16.19-3.57,12.71-4.2.48-9.88,8.73-14.34,4.78-2,2.53-4.08.89-6.17,6.41-3.89,1.56-8.1,3.29-12.13C1280,148.6,1277.93,146.83,1277.18,145.06Z"/></g></g></svg>