<svg xmlns="http://www.w3.org/2000/svg" viewBox="0 0 1923.11 2278.51"><defs><style>.cls-1{fill:#cdf2f2;}.cls-2{fill:#eefbfc;}</style></defs><g id="Layer_2" data-name="Layer 2"><g id="Layer_1-2" data-name="Layer 1"><path class="cls-1" d="M2,46.39c132.81-49.9,318-57.8,416.45-32,67.8,17.73,198.16,36.31,309.74,137C805.48,221.1,812.5,273,942,299.44c169.9,34.76,238.81-122,383-70.26,106.71,38.25,381.55-57.19,524.93-70,19.08-1.7,44.34.56,72.07,5,0,0,.09,0,.09,0,.08,86.23,2.33,1552.26-.09,1646.93-231.08,3.71-1583.66,3.71-1920,3.71-4.81,0,.71-1691,0-1768.32C2,46.4,1.91,46.42,2,46.39Z"/><path class="cls-2" d="M2,95C133.37,43.1,319.91,34.6,418.49,60.72,485.39,78.45,614,97,724.07,197.72,800.31,267.48,807.24,319.33,935,345.86c167.62,34.76,233.48-129.34,375.78-77.64,105.27,38.25,355.4-29.08,482.87-57,31.62-6.92,78.75-8.83,128.35-8.41h0c-.38,98.14-.38,1981.63,0,2074.05-228,3.71-1588.17,0-1920,0C2,2269.8,2,172.44,1.94,95,1.94,95,2,95,2,95Z"/></g></g></svg>