<svg id="Layer_1" data-name="Layer 1" xmlns="http://www.w3.org/2000/svg" viewBox="0 0 1280 1700"><defs><style>.cls-1{fill:#cdf2f2;}.cls-2{fill:#eefbfc;}</style></defs><title>BACK10</title><path class="cls-1" d="M-171.29,470.94c.41-183.42,287.31-234.16,403.46-191.19,47.91,17.73,140,36.31,218.85,137,54.6,69.74,59.56,121.59,151,148.08,120,34.76,168.73-122,270.64-70.26,75.4,38.25,269.59-57.19,370.89-70,55.38-7,184.45,53,205.82,53,93.6,0,49.61,141.58,54.17,282.64,6.84,211.6-32.8,1221.61-34.51,1316.27-163.26,3.71-1402.71,3.71-1640.36,3.71C-174.71,2080.21-172.15,847.73-171.29,470.94Z"/><path class="cls-2" d="M-165.86,517.32c.41-183.42,283.46-234.16,398.05-191.19,47.27,17.73,138.14,36.31,215.91,137,53.87,69.74,58.76,121.59,149,148.08,118.44,34.76,165-129.33,265.51-77.64,74.38,38.25,251.11-29.08,341.18-57,63.2-19.59,216.6,1,237.69,1,92.34,0,40.55,188,45,329.07,6.74,211.6-32.36,1221.6-34,1316.26-161.07,3.71-1383.89,3.71-1618.35,3.71C-169.23,2126.59-166.7,894.11-165.86,517.32Z"/></svg>