<svg xmlns="http://www.w3.org/2000/svg" viewBox="0 0 1921.17 2201.65"><defs><style>.cls-1{fill:#fff;}.cls-2{fill:#cdf2f2;}.cls-3{fill:#eefbfc;}</style></defs><g id="Layer_2" data-name="Layer 2"><g id="Layer_1-2" data-name="Layer 1"><rect class="cls-1" x="0.05" width="1920" height="1900"/><path class="cls-2" d="M416.5,227.48c67.8,17.73,198.16,36.31,309.74,137,77.3,69.76,84.32,121.61,213.81,148.1,169.9,34.76,238.81-122,383-70.26,106.71,38.25,381.55-57.19,524.93-70,19.1-1.71,44.39.57,72.16,5,.08,86.22,2.33,1552.26-.09,1646.93-231.08,3.71-1810.3,4.92-1920,3.71,0,0,.71-1692.44,0-1768.41C132.86,209.62,318,201.73,416.5,227.48Z"/><path class="cls-3" d="M.05,308.14c131.38-51.9,317.91-60.41,416.5-34.28,66.9,17.73,195.51,36.31,305.58,137C798.37,480.62,805.3,532.47,933.05,559c167.62,34.76,233.48-129.34,375.78-77.64,105.27,38.25,355.4-29.08,482.87-57,31.62-6.93,78.73-8.84,128.35-8.41h0c-.38,98.14-.38,1691.62,0,1784.05-228,3.71-1588.17,0-1920,0,0-7.06,0-1814.43,0-1891.86Z"/></g></g></svg>