<svg xmlns="http://www.w3.org/2000/svg" viewBox="0 0 1923.11 2101.65"><defs><style>.cls-1{fill:#fff;}.cls-2{fill:#cdf2f2;}.cls-3{fill:#eefbfc;}</style></defs><g id="Layer_2" data-name="Layer 2"><g id="Layer_1-2" data-name="Layer 1"><rect class="cls-1" x="1.99" width="1920" height="1900"/><path class="cls-2" d="M2,259.53c132.81-49.91,318-57.8,416.45-32,67.8,17.73,198.16,36.31,309.74,137,77.3,69.76,84.32,121.61,213.81,148.1,169.9,34.76,238.81-122,383-70.26,106.71,38.25,381.55-57.19,524.93-70,19.08-1.7,44.34.56,72.07,5,0,0,.09,0,.09,0,.08,86.23,2.33,1552.26-.09,1646.93-231.08,3.71-1583.66,3.71-1920,3.71-4.81,0,.71-1691,0-1768.32C2,259.53,1.91,259.56,2,259.53Z"/><path class="cls-3" d="M2,308.12c131.38-51.88,317.92-60.39,416.5-34.26,66.9,17.73,195.51,36.31,305.58,137C800.31,480.62,807.24,532.47,935,559c167.62,34.76,233.48-129.34,375.78-77.64,105.27,38.25,355.4-29.08,482.87-57,31.62-6.92,78.75-8.83,128.35-8.41h0c-.38,98.14-.38,1591.62,0,1684.05-228,3.71-1588.17,0-1920,0,0-7.06,0-1714.43-.05-1791.86Z"/></g></g></svg>