<svg xmlns="http://www.w3.org/2000/svg" viewBox="0 0 1280.63 1200"><defs><style>.cls-1{fill:#fff;}.cls-2{fill:#c4f3f3;}.cls-3{fill:#e6f9fa;}</style></defs><g id="Layer_2" data-name="Layer 2"><g id="Layer_1-2" data-name="Layer 1"><g id="Layer_2-2" data-name="Layer 2"><g id="Layer_1-2-2" data-name="Layer 1-2"><g id="Layer_2-2-2" data-name="Layer 2-2"><rect class="cls-1" x="0.63" width="1280" height="1000"/><path class="cls-2" d="M1280.63,1000H.63V217.47c13,5.4,185,36.77,185,36.77,30,6.07,85,14.16,161,2l82-18.24c2-1,123-34.41,133-37.18,53.57-14.91,175.69-11.17,226,6.82l70,23.36c73,25.3,159.29,33.39,177,34.41,16.26.93,69.84-4.08,77-5.06,58.93-8.08,169-32.28,169-32.72Z"/><path class="cls-3" d="M1280,1200H0V232.29c13,5.34,185,36.34,185,36.34,30,6,85,14,161,2l82-18c2-1,123-34,133-36.75,53.57-14.74,175.69-11,226,6.75l70,23c73,25,159.3,33,177,34,16.26.92,69.85-4,77-5,58.94-8,169-31.9,169-32.34Z"/></g></g></g></g></g></svg>