<svg xmlns="http://www.w3.org/2000/svg" viewBox="0 0 392.42 63.29"><defs><style>.cls-1{fill:#95e3dd;}</style></defs><title>Asset 17</title><g id="Layer_2" data-name="Layer 2"><g id="Layer_1-2" data-name="Layer 1"><path class="cls-1" d="M391.55,44.45c2-3.26,1.09-3.62-9.56-3.62-1.2,0-2.56.13-3.19-.36l3.66-.48c1.63,0,1.71-.33,1.85-.68,4.9-1.51,2.93-3.47,3.43-5.26a11.19,11.19,0,0,0,.88-7.18c.78-.49-.09-.85-1-1.21-.32-1,1.27-2.56-5.28-2-6.06.15-4.72-1.23-4.85-2.3,2.22-1.55-.52-3.35,2.52-4.85,6-2.17,5.09-4.7,3.92-7.25,1.19-1.06,1.51-2.12,0-3.19,0-4.3-3-5.47-11.83-5.19A113.7,113.7,0,0,0,359.46.46l1.32.4h-.06a8.12,8.12,0,0,0-1.26-.41,3.5,3.5,0,0,0-1.08,0C352-.16,345.41,0,338.9.07c-14.19-.26-28.23.25-42.29.71-7.09.62-14.73-.06-21.68.89-9-1-17.46.46-26.2.63-5.37.1-11.06-.37-16.11.61-11.47-.13-22.43.88-33.55,1.5h0c-5.39.71-11.46,0-16.84.78a1.34,1.34,0,0,0-.78,0h0l-19.31.5c-6.43-.11-12.84-.11-19.18.33h-1.33a116.76,116.76,0,0,1-16.57.44c-5.71,0-11.25.28-16.7.77-5.21.08-10.3.36-15.31.8H91.76a91.77,91.77,0,0,0-12.12,1c5.91-.25,5.91-.25,6.89.54-4.13.57-8.9.14-13,.81a59.41,59.41,0,0,0-9.31.38h0c-3,0-6.08-.08-6.63,1.22-.62,1.46-1.3,2.9-2,4.36h-2.4L47,16.91c-2.67,0-5.45-.27-7.86.33l-2.33.08a17.28,17.28,0,0,0-5.36.32c-1.32.06-2.9-.11-3.69.41-1.09.17-1.33.47-1.37.82-.37,0-.74,0-1.11,0a22.28,22.28,0,0,0-2.42,0c-.52.59,2.12.64,2.23,1.16-1.33.38-3.95.26-4.16,1,0,.05,1.91.16,2.93.24L25,22c-1.37.55.33.6,1.31.77l2.56.44-5,3.54-1.28,1c.23.27.33.57,1.5.62h0c.69.81,1.56,1.57,4.76,1.68v.65c-1.18.2-1.49.4,0,.6l2.45.7c-1.22.16-2.75.18-3.35.66l2.23.24c2.1,0,4.19,0,6.27-.06h0l-6.27.06,5,.65h0c-2.54.13-5.47-.05-7.21.95,5.3,0,10-.58,14.8-.85l.23.77c-1.4,1.1-5.57,1.15-7.7,2-2.15.59-5.09.49-7.51.85-2,.45-4.62-.13-6.54.41h0c-3.45.13-7.15-.43-10.33.38l-3.78.48c-1.27,0-2.78-.25-3.55.31-.26.4-2.47.29-2.19.78C2.2,41,3.63,42.25,0,43.42c-.24.08,1.3.7,2,1.06L3.38,45.6c.17.7-.91,1.46,1.08,2.06l1.41.78c1.26,1-2.66,2.66,4.14,2.81h0l2.31.48a32.3,32.3,0,0,0,7,0c.24,0,.37.08.63.1a7.92,7.92,0,0,0,2.5-.11l2.31-.06c2.64.2,5.72-.32,8,.47a.55.55,0,0,1-.27.38,1.51,1.51,0,0,0,.15,2.17h0l-.15-2.17c-2,.78-.77,1.67-.91,2.52-2.28.87.51,1.77-.11,2.65,1,.68,1,1.37,0,2.05l-.21.78c-1.68,1.41,3.61.4,3.95,1.11-2.91,1.32-1.33,1.77,3.22,1.6,2.22-.09,4.4-.25,6.6-.37a141.84,141.84,0,0,0,16.41.4h.36c4.27-.4,8.71,0,13-.24,0,0,0,0,0,0,.48-.05,1,0,1.44,0L76,62.74h.53l2.37-.32h0c-1.19-.19-2.2-.24-2.37.32-.21,0-.31.11-.28.19l6.21-.13c4.77,0,9.65.44,14.28-.28l5.93-.1c4-.07,8.17.39,12-.31a71.62,71.62,0,0,1,8.42-.08c4-.1,8.25.41,12.1-.34l3.45-.06c4.4-.11,9,.44,13.2-.33L163,61.23c5.71-.11,11.54.42,17.12-.33l14-.07L198,60.5a5,5,0,0,0,2.72,0,97.37,97.37,0,0,0,12.08,0h0a19.15,19.15,0,0,0,4.89.26c21.21.15,42.42.34,63.63.39,14.15,0,28.3-.14,42.45-.23h0c2.16-.06,4.3-.14,6.42-.3h1c.7-.12,1.49-.06,2.22-.12,12.53-.74,26.52,1.05,37.63-2.14a7.27,7.27,0,0,0-1.68,0c.14,0,.32,0,.46-.05a5.26,5.26,0,0,1,1.22,0,62.8,62.8,0,0,0,11.46-1.17,11,11,0,0,0,5-1.09c3.89-1.29.14-3,2.67-4.4,1.47-.61.78-1.25.27-1.89,2-1.19.48-2.48,1-3.72C392.42,45.54,391.78,45,391.55,44.45Z"/></g></g></svg>