<svg xmlns="http://www.w3.org/2000/svg" viewBox="0 0 167 155.37"><defs><style>.cls-1{fill:#95e3dd;}.cls-2{fill:#ffde55;}</style></defs><title>iconbrush_1</title><g id="Layer_2" data-name="Layer 2"><g id="Layer_1-2" data-name="Layer 1"><path class="cls-1" d="M166.63,112.11c.87-7.5.46-8.33-4.07-8.33-.51,0-1.09.3-1.36-.83l1.56-1.1c.7.1.73-.75.79-1.56,2.09-3.48,1.25-8,1.46-12.08a131.42,131.42,0,0,0,.37-16.49A3.63,3.63,0,0,0,165,69c-.13-2.4.55-5.9-2.24-4.68-2.58.35-2-2.81-2.06-5.28.94-3.55-.23-7.69,1.07-11.15,2.55-5,2.16-10.79,1.67-16.63a16.06,16.06,0,0,0,0-7.33c0-9.88-1.28-12.57-5-11.93-1.79-.56-3.56-1.42-5.41-.89l.56.91,0,0a4.43,4.43,0,0,0-.53-.94.34.34,0,0,0-.47-.1c-2.72-1.33-5.51-.88-8.29-.8-6-.59-12,.57-18,1.64-3,1.42-6.27-.15-9.23,2-3.83-2.29-7.43,1.05-11.15,1.44-2.28.23-4.7-.84-6.85,1.41-4.89-.3-9.55,2-14.28,3.44h0c-2.3,1.64-4.88,0-7.17,1.79-.13-.13-.24-.1-.33.1h0q-4.11.59-8.22,1.14a18,18,0,0,0-8.16.76l-.57,0c-2.32.93-4.64,1.84-7.05,1a14.78,14.78,0,0,0-7.11,1.77,19,19,0,0,0-6.52,1.84h-.54a9.52,9.52,0,0,0-5.16,2.31c2.52-.58,2.52-.58,2.94,1.24-1.76,1.3-3.79.32-5.52,1.85-1.35,0-2.71-.17-4,.88h0c-1.27,0-2.59-.18-2.82,2.81-.26,3.34-.56,6.66-.84,10h-1L20,48.83c-1.13,0-2.32-.62-3.34.76l-1,.18c-.8-.08-1.63-.4-2.28.75-.57.13-1.24-.26-1.57.94a2.43,2.43,0,0,0-.59,1.87,1.23,1.23,0,0,1-.47,0c-.36,0-1-.08-1,.1-.22,1.35.9,1.47.95,2.66-.57.88-1.68.6-1.77,2.36,0,.13.81.38,1.25.57l.51,1.52c-.59,1.27.14,1.39.55,1.78l1.09,1q-1.05,4-2.12,8.12c-.18.78-.36,1.56-.55,2.34.1.63.15,1.32.64,1.44h0c.29,1.86.66,3.59,2,3.85v1.51c-.5.46-.63.91,0,1.37l1,1.6c-.53.38-1.17.43-1.43,1.51.32.2.64.38.95.56a9.59,9.59,0,0,0,2.67-.13h0l-2.67.13L15,87.16h0c-1.08.3-2.33-.11-3.07,2.18,2.26.08,4.24-1.34,6.3-2,0,.59.06,1.18.1,1.76C17.72,91.68,16,91.8,15,93.7c-.92,1.35-2.17,1.12-3.2,1.94-.84,1-2-.28-2.78,1v0c-1.46.28-3-1-4.39.86l-1.61,1.1c-.54,0-1.18-.56-1.51.73-.11.9-1,.66-.93,1.79.31,3,.93,6-.61,8.68a13.49,13.49,0,0,0,.86,2.44l.57,2.56c.07,1.6-.39,3.34.46,4.72l.6,1.81c.53,2.2-1.13,6.1,1.76,6.45h0l1,1.1c1,.83,2,.29,3-.06.11.05.16.18.27.23a.8.8,0,0,0,1.07-.26l1-.13c1.12.45,2.44-.75,3.41,1.08a3.08,3.08,0,0,1-.12.86,16.12,16.12,0,0,0,.07,5h0c0-1.67-.05-3.34-.07-5-.83,1.79-.32,3.84-.39,5.78-1,2,.22,4.07,0,6.09a9.1,9.1,0,0,1,0,4.72l-.09,1.79c-.72,3.24,1.54.93,1.68,2.56-1.24,3-.56,4.06,1.37,3.67.94-.2,1.87-.57,2.81-.86a11.7,11.7,0,0,0,7,.92l.16,0c1.82-.93,3.7,0,5.53-.56,0,0,0,0,0-.06.2-.11.42.09.61-.07,0-.15-.07-.28-.1-.43l.22,0c.34-.23.67-.48,1-.72h0c-.51-.43-.93-.55-1,.72a.63.63,0,0,0-.12.45l2.65-.29c2-.13,4.1,1,6.07-.65l2.53-.23c1.7-.16,3.47.9,5.11-.71a5.85,5.85,0,0,1,3.58-.2c1.72-.22,3.51,1,5.15-.78l1.47-.13c1.87-.25,3.81,1,5.62-.75l4.71-.17c2.43-.25,4.91,1,7.28-.76l6-.15,1.67-.76c.38.43.76.78,1.16.06a7.81,7.81,0,0,0,5.14-.08h0c.62,1,1.38.56,2.08.59,9,.34,18,.79,27.08.9,6,.08,12-.33,18.06-.52h0a13.5,13.5,0,0,0,2.73-.69c.14,0,.27,0,.41,0,.3-.26.63-.14.94-.28,5.33-1.68,11.29,2.43,16-4.91-.25-.35-.46.08-.72,0,.06-.1.14,0,.2-.13s.34,0,.52.1a7.45,7.45,0,0,0,4.87-2.69,3.18,3.18,0,0,0,2.12-2.51c1.65-3,.06-7,1.13-10.09a7.57,7.57,0,0,0,.12-4.35c.84-2.74.21-5.7.43-8.54A8.59,8.59,0,0,0,166.63,112.11Z"/><path class="cls-2" d="M162.19,18.26c.71-1.34.38-1.49-3.32-1.49-.42,0-.9.06-1.12-.15l1.28-.19c.57,0,.59-.14.64-.28,1.71-.62,1-1.43,1.19-2.16a5.37,5.37,0,0,0,.31-3c.27-.2,0-.35-.33-.5-.11-.42.44-1-1.84-.83-2.11.06-1.64-.51-1.69-1,.78-.63-.18-1.37.88-2,2.09-.89,1.77-1.93,1.36-3,.42-.43.53-.87,0-1.31,0-1.76-1-2.25-4.12-2.13A32.37,32.37,0,0,0,151,.19l.46.16h0A2.24,2.24,0,0,0,151,.19a1,1,0,0,0-.38,0A58.71,58.71,0,0,0,143.88,0c-4.94-.11-9.82.1-14.71.29-2.47.26-5.13,0-7.54.37-3.14-.41-6.07.18-9.12.25a28.82,28.82,0,0,0-5.6.26c-4-.06-7.8.36-11.67.61h0c-1.88.3-4,0-5.86.32a.4.4,0,0,0-.27,0h0l-6.72.2c-2.23,0-4.46,0-6.67.14h-.46a35.54,35.54,0,0,1-5.76.17A50.16,50.16,0,0,0,63.69,3c-1.81,0-3.59.15-5.33.33h-.44a25.84,25.84,0,0,0-4.22.41c2.06-.1,2.06-.1,2.4.22-1.44.23-3.1.06-4.51.33a18.19,18.19,0,0,0-3.24.16h0c-1,0-2.12,0-2.31.5s-.45,1.2-.68,1.79h-.84L42.34,7a9.46,9.46,0,0,0-2.73.13l-.81,0a5.17,5.17,0,0,0-1.87.14c-.46,0-1,0-1.28.16s-.46.2-.48.34h-.38c-.3,0-.82,0-.85,0-.18.24.74.27.78.48-.46.16-1.38.11-1.45.42,0,0,.67.07,1,.1l.42.28c-.48.22.11.24.45.31l.9.18L34.32,11l-.45.42c.08.11.12.23.53.25h0c.24.33.54.65,1.65.69a2.44,2.44,0,0,1,0,.27c-.41.08-.52.16,0,.25l.86.28a2.88,2.88,0,0,0-1.17.27l.78.1c.73,0,1.45,0,2.18,0h0l-2.18,0,1.73.27h0a5.47,5.47,0,0,0-2.51.39c1.85,0,3.46-.24,5.15-.35,0,.11,0,.21.08.32-.49.45-1.94.47-2.68.81a22.86,22.86,0,0,1-2.61.35c-.69.18-1.61-.05-2.28.17h0a15.86,15.86,0,0,0-3.6.16l-1.31.2c-.44,0-1-.1-1.23.13-.1.16-.86.11-.76.32.25.53.75,1.07-.5,1.55-.08,0,.45.28.7.44l.46.45c.06.29-.31.6.38.85l.49.32c.44.39-.92,1.09,1.44,1.15h0l.81.2a9.49,9.49,0,0,0,2.44,0l.22,0a2.27,2.27,0,0,0,.87,0l.8,0a10.15,10.15,0,0,1,2.79.2.22.22,0,0,1-.1.15.7.7,0,0,0,.06.89h0l-.06-.89c-.67.32-.26.69-.31,1-.8.36.18.73,0,1.09.35.28.34.57,0,.85,0,.1-.05.21-.07.32-.59.58,1.25.16,1.37.45-1,.55-.46.73,1.12.66.77,0,1.53-.1,2.3-.15a41.53,41.53,0,0,0,5.7.16h.13c1.49-.17,3,0,4.52-.1,0,0,0,0,0,0,.17,0,.34,0,.5,0l-.08-.07h.18l.82-.12h0c-.41-.08-.76-.1-.82.12-.07,0-.11.05-.1.08l2.16-.05a30.44,30.44,0,0,0,5-.11l2.06-.05a21.51,21.51,0,0,0,4.18-.12,20.45,20.45,0,0,1,2.93,0A21.81,21.81,0,0,0,73,25.34l1.19,0a27,27,0,0,0,4.6-.13l3.85,0A43.65,43.65,0,0,0,88.63,25l4.87,0,1.37-.13a1.59,1.59,0,0,0,.94,0,29.42,29.42,0,0,0,4.2,0h0a5.94,5.94,0,0,0,1.7.11c7.38.06,14.76.14,22.14.16,4.92,0,9.84-.06,14.76-.1h0c.76,0,1.5-.06,2.24-.12h.33c.25,0,.52,0,.77,0,4.36-.31,9.23.43,13.09-.88-.2-.07-.37,0-.58,0,0,0,.11,0,.16,0a1.25,1.25,0,0,1,.42,0,18.88,18.88,0,0,0,4-.48,3.46,3.46,0,0,0,1.73-.45c1.35-.53.05-1.25.93-1.81.51-.25.27-.51.09-.78.69-.49.17-1,.35-1.52C162.49,18.71,162.27,18.49,162.19,18.26Z"/></g></g></svg>